<?xml version="1.0" standalone="no"?>
<!DOCTYPE svg PUBLIC "-//W3C//DTD SVG 20010904//EN"
 "http://www.w3.org/TR/2001/REC-SVG-20010904/DTD/svg10.dtd">
<svg version="1.0" xmlns="http://www.w3.org/2000/svg"
 width="820.000000pt" height="512.000000pt" viewBox="0 0 820.000000 512.000000"
 preserveAspectRatio="xMidYMid meet">

<g transform="translate(0.000000,512.000000) scale(0.100000,-0.100000)"
fill="#000000" stroke="none">
<path d="M4265 5095 c-24 -23 -25 -30 -25 -149 0 -707 -397 -1355 -1035 -1686
-52 -28 -101 -50 -109 -50 -18 0 -81 131 -105 221 -24 90 -47 226 -57 334 -7
94 -27 125 -80 125 -42 0 -149 -86 -300 -241 -333 -342 -536 -769 -594 -1249
-14 -120 -12 -397 4 -520 68 -499 290 -935 658 -1285 321 -307 712 -498 1163
-572 155 -25 489 -25 635 1 330 57 553 139 805 296 556 345 921 905 1009 1548
21 149 21 470 0 650 -74 646 -308 1201 -717 1702 -176 215 -448 463 -677 617
-190 128 -482 283 -531 283 -11 0 -31 -11 -44 -25z"/>
</g>
</svg>
