<?xml version="1.0" standalone="no"?>
<!DOCTYPE svg PUBLIC "-//W3C//DTD SVG 20010904//EN"
 "http://www.w3.org/TR/2001/REC-SVG-20010904/DTD/svg10.dtd">
<svg version="1.0" xmlns="http://www.w3.org/2000/svg"
 width="800.000000pt" height="497.000000pt" viewBox="0 0 800.000000 497.000000"
 preserveAspectRatio="xMidYMid meet">

<g transform="translate(0.000000,497.000000) scale(0.100000,-0.100000)"
fill="#000000" stroke="none">
<path d="M1738 3180 c6 -105 -9 -193 -46 -268 -50 -103 -209 -219 -248 -181
-20 21 -54 122 -54 163 0 19 -4 37 -8 40 -5 3 -33 -15 -63 -38 -126 -99 -211
-275 -207 -426 l1 -55 6 63 6 62 73 -45 c39 -25 76 -45 81 -45 4 0 16 -9 26
-20 10 -11 22 -20 27 -20 5 0 33 -15 61 -33 105 -67 225 -137 236 -137 6 0 11
-4 11 -8 0 -5 12 -15 28 -22 15 -8 41 -23 57 -35 17 -11 55 -34 85 -49 30 -16
57 -32 60 -36 14 -18 123 -71 135 -66 28 10 15 -3 -27 -28 -24 -14 -38 -26
-33 -26 17 0 117 69 158 108 53 51 111 145 138 222 30 85 33 279 6 380 -23 86
-77 199 -131 274 -76 107 -224 234 -342 294 l-41 21 5 -89z m-601 -632 c-3 -7
-5 -2 -5 12 0 14 2 19 5 13 2 -7 2 -19 0 -25z"/>
<path d="M3191 3242 c-52 -26 -75 -63 -75 -121 0 -64 37 -115 95 -132 55 -17
123 11 151 61 40 73 9 163 -69 196 -42 18 -61 18 -102 -4z"/>
<path d="M5080 3000 c0 -121 -2 -220 -5 -220 -3 0 -25 15 -50 34 -94 72 -242
97 -360 61 -164 -49 -271 -214 -282 -435 -15 -291 142 -509 380 -527 95 -7
165 13 252 72 l65 45 0 -50 0 -50 110 0 110 0 0 645 0 645 -110 0 -110 0 0
-220z m-105 -343 c100 -52 95 -41 95 -245 0 -206 0 -207 -90 -256 -118 -64
-258 -38 -320 61 -42 66 -53 114 -48 213 5 96 25 144 81 198 19 19 52 40 73
48 57 21 148 13 209 -19z"/>
<path d="M2640 3005 l0 -125 -75 0 -75 0 0 -105 0 -105 75 0 75 0 0 -271 c0
-172 4 -287 12 -316 15 -60 87 -137 143 -152 89 -24 215 -7 274 38 l24 18 -28
84 c-15 46 -29 86 -31 88 -2 2 -15 -6 -30 -18 -39 -31 -97 -28 -123 5 -20 25
-21 39 -21 275 l0 248 93 3 92 3 3 103 3 102 -91 0 -90 0 0 125 0 125 -115 0
-115 0 0 -125z"/>
<path d="M5698 2881 c-82 -26 -135 -61 -199 -127 -65 -69 -103 -143 -124 -239
-18 -87 -18 -132 -1 -217 21 -96 61 -172 125 -238 96 -98 214 -144 371 -143
74 1 113 7 175 27 79 25 181 85 191 111 5 13 -91 155 -105 155 -4 0 -16 -8
-25 -19 -9 -10 -45 -32 -79 -47 -54 -26 -74 -29 -157 -29 -86 0 -100 3 -142
28 -26 15 -59 42 -72 60 -28 36 -58 112 -49 121 4 3 161 6 350 6 l343 0 0 73
c-1 266 -163 459 -411 487 -110 13 -124 12 -191 -9z m251 -197 c67 -28 130
-111 131 -171 l0 -23 -235 0 c-230 0 -235 0 -235 20 0 26 36 98 64 128 61 68
177 87 275 46z"/>
<path d="M6817 2888 c-71 -9 -132 -35 -179 -77 -20 -17 -38 -31 -42 -31 -3 0
-6 20 -6 45 l0 45 -115 0 -115 0 0 -465 0 -465 115 0 115 0 0 319 0 320 33 25
c73 56 182 85 245 65 10 -3 13 21 13 109 0 63 -1 115 -3 116 -2 1 -29 -1 -61
-6z"/>
<path d="M3845 2869 c-33 -12 -81 -36 -108 -55 -26 -19 -49 -34 -52 -34 -3 0
-5 20 -5 45 l0 45 -110 0 -110 0 0 -465 0 -465 110 0 110 0 0 324 0 324 35 31
c57 49 94 64 175 68 89 5 133 -13 162 -68 16 -31 18 -63 18 -356 l0 -323 115
0 115 0 0 340 c0 348 -5 411 -41 482 -25 49 -84 95 -143 113 -72 22 -198 19
-271 -6z"/>
<path d="M3140 2405 l0 -465 110 0 110 0 0 465 0 465 -110 0 -110 0 0 -465z"/>
<path d="M1122 2380 c0 -14 2 -19 5 -12 2 6 2 18 0 25 -3 6 -5 1 -5 -13z"/>
<path d="M1900 1960 c-8 -5 -10 -10 -5 -10 6 0 17 5 25 10 8 5 11 10 5 10 -5
0 -17 -5 -25 -10z"/>
</g>
</svg>
