<?xml version="1.0" standalone="yes"?>
<svg xmlns="http://www.w3.org/2000/svg" width="480" height="570">
<path style="fill:#fafafa; stroke:none;" d="M0 0L0 311L1 311C2.05318 259.974 36.312 203.188 73.0008 169.83C82.3506 161.329 91.5191 153.187 102 146.029C104.844 144.086 110.625 139.043 114.366 140.519C120.426 142.911 119.466 160.461 120.156 166C122.992 188.783 129.259 210.745 142 230C211.183 213.987 254.315 144.104 258.91 77C259.933 62.0698 260.25 46.9199 258.83 32C257.889 22.1125 254.052 9.31903 258 0L0 0z"/>
<path style="fill:#fc839f; stroke:none;" d="M258 0L259 1L258 0z"/>
<path style="fill:#ff675e; stroke:none;" d="M242 150L242 151C237.287 152.474 235.802 156.674 234 161L235 161L239 152L240 152L240 155L241 155L242 152L243 157L244 157L243 152L248 159L251 159L252 161L251 165L252 165C255.227 164.662 255.728 167.102 256 170L257 170L258 168L272 189L275 188L280 196L276 193L278 197C281.726 197.403 283.951 199.396 285 203L292 210L290 209L295 212L296 216L296 217L294 219L298 221L299 221L298 218L300 221C304.602 221 310.851 230.404 310 235L311 235L311 232L318 245L319 245L320 245L319 243L320 243L323 248L326 248L323 249L323 250L325 252C326.976 252.208 332.595 254.387 328 255L328 256L332 255L335 260L334 262L334 263L335 263L336 261L337 266L337 267L340 266L344 269L344 273L347 273L344 275L353 281L350 282L356 286L356 291L359 291L359 292L362 291L363 297L366 296L366 299L366 300L369 299L366 301L366 302L370 302L370 303L366 306L368 304L369 304L371 306C372.762 303.768 382.027 313.351 377 314L377 315L382 315L384 317L385 323L392 330L395 332L391 331L391 332L394 334L395 332L396 332C398.08 336.244 401.015 338.089 399 343L403 340L406 343L401 345L401 346L406 345L407 345L409 347L408 352L413 355C416.189 355 418.297 358.927 418 362L419 362L420 360L423 363L423 364L420 363L423 369L424 369L422 365L428 370L428 371L425 371L425 372L429 371L435 381L438 381L440 383L440 384L437 386L441 384L440 388L440 389L443 388L446 391L446 392L443 393L443 394C446.998 394.6 449.046 396.021 450 400L456 402L456 406L459 406L459 408L457 407L457 408L460 412L461 413L464 413L463 418C468.75 410.282 470.99 396.37 473 387C478.279 362.392 480.808 338.101 479.09 313C472.335 214.374 429.336 131.945 357 64.9113C335.902 45.36 311.97 28.3949 287 14.1505C280.352 10.3578 267.991 0.314087 260.109 0.824036C253.24 1.26843 258.688 26.0221 259.17 31C261.921 59.4324 260.451 90.4625 252.279 118C249.956 125.831 247.165 133.547 243.825 141C242.576 143.786 239.892 147.401 242 150z"/>
<path style="fill:#fc839f; stroke:none;" d="M261 0L262 1L261 0z"/>
<path style="fill:#fcaeb4; stroke:none;" d="M262 0L263 1L262 0z"/>
<path style="fill:#fafafa; stroke:none;" d="M263 0L263 1C286.263 10.6854 307.749 26.0822 328 40.8488C408.61 99.6268 478.989 200.431 479 304L480 304L480 0L263 0z"/>
<path style="fill:#fc839f; stroke:none;" d="M263 1L264 2L263 1z"/>
<path style="fill:#fcaeb4; stroke:none;" d="M264 1L265 2L264 1z"/>
<path style="fill:#fc839f; stroke:none;" d="M256 2L257 3L256 2M265 2L266 3L265 2z"/>
<path style="fill:#fcaeb4; stroke:none;" d="M266 2L267 3L266 2z"/>
<path style="fill:#fc839f; stroke:none;" d="M267 3L268 4L267 3z"/>
<path style="fill:#fcaeb4; stroke:none;" d="M268 3L269 4L268 3z"/>
<path style="fill:#fc839f; stroke:none;" d="M269 4L270 5L269 4z"/>
<path style="fill:#fcaeb4; stroke:none;" d="M270 4L271 5L270 4z"/>
<path style="fill:#fc839f; stroke:none;" d="M271 5L272 6L271 5z"/>
<path style="fill:#fcaeb4; stroke:none;" d="M272 5L273 6L272 5z"/>
<path style="fill:#fc839f; stroke:none;" d="M256.333 6.66669L256.667 7.33331L256.333 6.66669M273 6L274 7L273 6z"/>
<path style="fill:#fcaeb4; stroke:none;" d="M274 6L275 7L274 6M275 7L275 8L280 10L280 9L275 7M256 8L256 11L257 11L256 8z"/>
<path style="fill:#fc839f; stroke:none;" d="M276 8L277 9L276 8M278 9L279 10L278 9M280 10L281 11L280 10z"/>
<path style="fill:#fcaeb4; stroke:none;" d="M281 10L282 11L281 10z"/>
<path style="fill:#fc839f; stroke:none;" d="M282 11L283 12L282 11z"/>
<path style="fill:#fcaeb4; stroke:none;" d="M283 11L284 12L283 11z"/>
<path style="fill:#fc839f; stroke:none;" d="M284 12L286 14L284 12z"/>
<path style="fill:#fcaeb4; stroke:none;" d="M285 12L286 13L285 12M286 13L287 14L286 13z"/>
<path style="fill:#fc839f; stroke:none;" d="M257.333 14.6667L257.667 15.3333L257.333 14.6667M287 14L288 15L287 14z"/>
<path style="fill:#fcaeb4; stroke:none;" d="M288 14L289 15L288 14z"/>
<path style="fill:#fc839f; stroke:none;" d="M289 15L290 16L289 15z"/>
<path style="fill:#fcaeb4; stroke:none;" d="M290 15L291 16L290 15M257.333 16.6667L257.667 17.3333L257.333 16.6667M291 16L292 17L291 16z"/>
<path style="fill:#fc839f; stroke:none;" d="M292 17L293 18L292 17z"/>
<path style="fill:#fcaeb4; stroke:none;" d="M293 17L294 18L293 17z"/>
<path style="fill:#fc839f; stroke:none;" d="M294 18L295 19L294 18z"/>
<path style="fill:#fcaeb4; stroke:none;" d="M296 19L297 20L296 19M298 20L299 21L298 20z"/>
<path style="fill:#fc839f; stroke:none;" d="M299 21L300 22L299 21M258 22L258 25L259 25L258 22M300 22L301 23L300 22z"/>
<path style="fill:#fcaeb4; stroke:none;" d="M301 22L302 23L301 22z"/>
<path style="fill:#fc839f; stroke:none;" d="M302 23L304 25L302 23z"/>
<path style="fill:#fcaeb4; stroke:none;" d="M303 23L304 24L303 23M304 24L305 25L304 24M258 25L258 30L259 30L258 25z"/>
<path style="fill:#fc839f; stroke:none;" d="M305 25L306 26L305 25z"/>
<path style="fill:#fcaeb4; stroke:none;" d="M306 25L307 26L306 25M307 26L308 27L307 26z"/>
<path style="fill:#fc839f; stroke:none;" d="M308 27L309 28L308 27z"/>
<path style="fill:#fcaeb4; stroke:none;" d="M309 27L310 28L309 27M310 28L311 29L310 28z"/>
<path style="fill:#fc839f; stroke:none;" d="M311 29L312 30L311 29z"/>
<path style="fill:#fcaeb4; stroke:none;" d="M312 29L313 30L312 29M313 30L314 31L313 30z"/>
<path style="fill:#fc839f; stroke:none;" d="M314 31L316 33L314 31z"/>
<path style="fill:#fcaeb4; stroke:none;" d="M315 31L316 32L315 31M316 32L317 33L316 32z"/>
<path style="fill:#fc839f; stroke:none;" d="M259 33L259 37L260 37L259 33M317 33L318 34L317 33M318 34L319 35L318 34z"/>
<path style="fill:#fcaeb4; stroke:none;" d="M319 34L320 35L319 34z"/>
<path style="fill:#fc839f; stroke:none;" d="M320 35L321 36L320 35M321 36L322 37L321 36z"/>
<path style="fill:#fcaeb4; stroke:none;" d="M322 36L323 37L322 36M259 37L259 48L260 48L259 37M323 37L324 38L323 37z"/>
<path style="fill:#fc839f; stroke:none;" d="M324 38L325 39L324 38z"/>
<path style="fill:#fcaeb4; stroke:none;" d="M326 39L327 40L326 39M327 40L328 41L327 40z"/>
<path style="fill:#fc839f; stroke:none;" d="M328 41L329 42L328 41z"/>
<path style="fill:#fcaeb4; stroke:none;" d="M330 42L331 43L330 42M331 43L332 44L331 43z"/>
<path style="fill:#fc839f; stroke:none;" d="M332 44L334 46L332 44z"/>
<path style="fill:#fcaeb4; stroke:none;" d="M333 44L334 45L333 44M334 45L335 46L334 45M335 46L336 47L335 46M336 47L336 48L340 50L336 47z"/>
<path style="fill:#fc839f; stroke:none;" d="M337 48L338 49L337 48M338 49L339 50L338 49z"/>
<path style="fill:#fcaeb4; stroke:none;" d="M340 50L341 51L340 50z"/>
<path style="fill:#fc839f; stroke:none;" d="M341 51L344 54L341 51z"/>
<path style="fill:#fcaeb4; stroke:none;" d="M342 51L343 52L342 51M343 52L344 53L343 52M344 53L345 54L344 53M345 54L346 55L345 54z"/>
<path style="fill:#fc839f; stroke:none;" d="M346 55L347 56L346 55M347 56L348 57L347 56M348 57L349 58L348 57z"/>
<path style="fill:#fcaeb4; stroke:none;" d="M349 57L350 58L349 57M350 58L351 59L350 58M351 59L352 60L351 59M352 60L353 61L352 60M353 61L354 62L353 61M259 62L259 72L260 72L259 62z"/>
<path style="fill:#fc839f; stroke:none;" d="M354 62L355 63L354 62M355 63L360 68L355 63z"/>
<path style="fill:#fcaeb4; stroke:none;" d="M356 63L357 64L356 63M357 64L358 65L357 64M358 65L359 66L358 65M359 66L360 67L359 66M360 67L361 68L360 67M361 68L362 69L361 68M362 69L363 70L362 69M363 70L364 71L363 70z"/>
<path style="fill:#fc839f; stroke:none;" d="M364 71L365 72L364 71M259 72L259 76L260 76L259 72M365 72L366 73L365 72M366 73L367 74L366 73M367 74L368 75L367 74M371 78L372 79L371 78M372 79L373 80L372 79z"/>
<path style="fill:#fcaeb4; stroke:none;" d="M258 80L258 83L259 83L258 80z"/>
<path style="fill:#fc839f; stroke:none;" d="M373 80L381 88L373 80z"/>
<path style="fill:#fcaeb4; stroke:none;" d="M374 80L375 81L374 80M375 81L376 82L375 81M376 82L377 83L376 82z"/>
<path style="fill:#fc839f; stroke:none;" d="M258.333 83.6667L258.667 84.3333L258.333 83.6667z"/>
<path style="fill:#fcaeb4; stroke:none;" d="M377 83L378 84L377 83M378 84L379 85L378 84M379 85L380 86L379 85M380 86L381 87L380 86M257 88L257 91L258 91L257 88z"/>
<path style="fill:#fc839f; stroke:none;" d="M381 88L382 89L381 88M382 89L383 90L382 89M383 90L384 91L383 90M257.333 91.6667L257.667 92.3333L257.333 91.6667M384 91L385 92L384 91z"/>
<path style="fill:#fcaeb4; stroke:none;" d="M385 92L386 93L385 92M386 93L387 94L386 93M387 94L388 95L387 94M256.333 95.6667L256.667 96.3333L256.333 95.6667M388 95L389 96L388 95M389 96L390 97L389 96z"/>
<path style="fill:#fc839f; stroke:none;" d="M256.333 97.6667L256.667 98.3333L256.333 97.6667z"/>
<path style="fill:#fcaeb4; stroke:none;" d="M390 97L391 98L390 97z"/>
<path style="fill:#fc839f; stroke:none;" d="M390 98L391 99L390 98M391 99L392 100L391 99z"/>
<path style="fill:#fcaeb4; stroke:none;" d="M255 100L255 103L256 103L255 100z"/>
<path style="fill:#fc839f; stroke:none;" d="M392 100L393 101L392 100M393 101L394 102L393 101z"/>
<path style="fill:#fcaeb4; stroke:none;" d="M394 102L395 103L394 102z"/>
<path style="fill:#fc839f; stroke:none;" d="M255 103L256 104L255 103z"/>
<path style="fill:#fcaeb4; stroke:none;" d="M395 103L399 107L395 103z"/>
<path style="fill:#fc839f; stroke:none;" d="M395 104L396 105L395 104z"/>
<path style="fill:#fcaeb4; stroke:none;" d="M254.333 105.667L254.667 106.333L254.333 105.667z"/>
<path style="fill:#fc839f; stroke:none;" d="M396 105L397 106L396 105M397 106L398 107L397 106M254.333 107.667L254.667 108.333L254.333 107.667M398 107L399 108L398 107z"/>
<path style="fill:#fcaeb4; stroke:none;" d="M399 108L400 109L399 108M400 109L401 110L400 109M253.333 110.667L253.667 111.333L253.333 110.667M401 110L403 112L401 110z"/>
<path style="fill:#fc839f; stroke:none;" d="M401 111L402 112L401 111M253.333 112.667L253.667 113.333L253.333 112.667M402 112L403 113L402 112M403 113L404 114L403 113z"/>
<path style="fill:#fcaeb4; stroke:none;" d="M252.333 114.667L252.667 115.333L252.333 114.667M404 114L405 115L404 114M405 115L406 116L405 115z"/>
<path style="fill:#fc839f; stroke:none;" d="M252.333 116.667L252.667 117.333L252.333 116.667z"/>
<path style="fill:#fcaeb4; stroke:none;" d="M251 117L251 120L252 120L251 117z"/>
<path style="fill:#fc839f; stroke:none;" d="M406 117L407 118L406 117z"/>
<path style="fill:#fcaeb4; stroke:none;" d="M407 118L408 119L407 118M408 119L410 121L408 119z"/>
<path style="fill:#fc839f; stroke:none;" d="M251 120L252 121L251 120M408 120L409 121L408 120z"/>
<path style="fill:#fcaeb4; stroke:none;" d="M250.333 121.667L250.667 122.333L250.333 121.667z"/>
<path style="fill:#fc839f; stroke:none;" d="M409 121L410 122L409 121z"/>
<path style="fill:#fcaeb4; stroke:none;" d="M410 122L411 123L410 122z"/>
<path style="fill:#fc839f; stroke:none;" d="M250 123L251 124L250 123z"/>
<path style="fill:#fcaeb4; stroke:none;" d="M411 123L413 127L414 127L411 123M249.333 124.667L249.667 125.333L249.333 124.667z"/>
<path style="fill:#fc839f; stroke:none;" d="M411 124L412 125L411 124M412 125L413 126L412 125M249 126L250 127L249 126z"/>
<path style="fill:#fcaeb4; stroke:none;" d="M248.333 127.667L248.667 128.333L248.333 127.667M414 127L416 129L414 127z"/>
<path style="fill:#fc839f; stroke:none;" d="M414 128L415 129L414 128M248 129L249 130L248 129M415 129L416 130L415 129z"/>
<path style="fill:#fcaeb4; stroke:none;" d="M247.333 130.667L247.667 131.333L247.333 130.667M416 130L417 131L416 130M417 131L418 132L417 131z"/>
<path style="fill:#fc839f; stroke:none;" d="M247 132L248 133L247 132M417 132L418 133L417 132z"/>
<path style="fill:#fcaeb4; stroke:none;" d="M246.333 133.667L246.667 134.333L246.333 133.667M418 133L419 134L418 133M419 134L421 136L419 134M245.333 135.667L245.667 136.333L245.333 135.667z"/>
<path style="fill:#fc839f; stroke:none;" d="M419 135L420 136L419 135M420 136L421 137L420 136M245 137L246 138L245 137z"/>
<path style="fill:#fcaeb4; stroke:none;" d="M421 137L422 138L421 137M244 138L245 139L244 138z"/>
<path style="fill:#fc839f; stroke:none;" d="M421 138L422 139L421 138z"/>
<path style="fill:#fcaeb4; stroke:none;" d="M113 139L114 140L113 139z"/>
<path style="fill:#fc839f; stroke:none;" d="M244 139L245 140L244 139M422 139L423 140L422 139z"/>
<path style="fill:#fcaeb4; stroke:none;" d="M109 142L112 141L109 142z"/>
<path style="fill:#fc839f; stroke:none;" d="M112 140L113 141L112 140z"/>
<path style="fill:#ff675e; stroke:none;" d="M113 140L114 141L113 140z"/>
<path style="fill:#fc839f; stroke:none;" d="M114 140L115 141L114 140z"/>
<path style="fill:#fcaeb4; stroke:none;" d="M115 140L117 144L118 144L115 140M423 140L424 141L423 140z"/>
<path style="fill:#ff675e; stroke:none;" d="M110 141L111 142L110 141z"/>
<path style="fill:#fe4b6b; stroke:none;" d="M464 413L461 413L460 412L461 410L457 408L457 407L459 408L459 407L456 406L456 402L450 400C450.069 395.567 447.273 393.752 443 394L443 393L446 392L446 391L443 391L443 388L440 389L440 388L442 387L441 384L437 386L440 384L440 383L437 383L438 381L435 381L429 371L425 372L425 371L428 371L428 370L425 370L422 365L424 369L423 369L420 363L423 364L423 363C420.46 361.307 419.684 358.579 419 362L418 362C417.874 358.33 416.723 355.794 413 355L408 352L409 347L407 345L406 345L401 346L401 345L406 343L403 340L399 343C401.513 338.006 398.961 335.276 395 332L394 334L393 334L391 332L391 331L395 332L392 330C392.076 326.808 388.17 323 385 323L386 320L384 317L381 317L382 315L377 315L377 314L380 314C378.766 311.522 373.748 303.079 371 306L369 304L368 304L366 306L370 303L370 302L366 302L366 301L369 299L366 300L366 299L368 298L363 297L362 291L359 292L359 291L361 290L356 291L356 286C352.415 286.037 349.929 283.639 353 281L344 275L347 273L344 273L344 269L340 266L338 267L337 267L337 266L339 265L335 263L334 263L335 260L332 255L328 256L328 255L331 255L325 252L323 250L323 249L326 248L323 248L319 243L320 245L319 245L318 245C318.424 239.652 315.381 234.973 311 232L311 235L310 235C311.36 229.174 305.618 222.178 300 221L300 218L298 218L299 221L298 221L294 219L296 217L296 216L295 212L290 209L292 210L292 209L285 203C284.289 198.893 282.162 197.177 278 197L276 193L280 196C278.295 192.413 276.198 188.889 272 189C272.749 181.015 262.371 174.106 258 168L257 170L256 170C256.221 167.421 255.272 162.265 252 165L251 165L252 161L251 159L250 158L248 159L243 152L244 157L243 157L242 152L241 155L240 155L240 152L239 152C223.126 189.928 179.761 220.42 141 231C132.751 209.204 122.475 190.796 119.13 167C118.437 162.069 118.986 144.594 114.682 142.072C110.066 139.367 101.681 147.113 98 149.424C82.0942 159.409 68.3888 173.916 56.159 188C6.489 245.199 -10.3271 321.111 7.89506 394C19.3885 439.974 42.9621 482.399 79 513.711C170.75 593.427 323.317 587.65 409 502C432.287 478.722 457.171 445.997 464 413z"/>
<path style="fill:#ff675e; stroke:none;" d="M115 141L116 142L115 141z"/>
<path style="fill:#fcaeb4; stroke:none;" d="M243 141L244 142L243 141z"/>
<path style="fill:#fc839f; stroke:none;" d="M423 141L424 142L423 141z"/>
<path style="fill:#fcaeb4; stroke:none;" d="M107 142L108 143L107 142z"/>
<path style="fill:#fc839f; stroke:none;" d="M108 142L109 143L108 142z"/>
<path style="fill:#ff675e; stroke:none;" d="M116 142L117 143L116 142z"/>
<path style="fill:#fc839f; stroke:none;" d="M424 142L425 143L424 142z"/>
<path style="fill:#fcaeb4; stroke:none;" d="M105 143L104 145L105 143z"/>
<path style="fill:#fc839f; stroke:none;" d="M106 143L107 144L106 143z"/>
<path style="fill:#ff675e; stroke:none;" d="M107 143L108 144L107 143z"/>
<path style="fill:#fcaeb4; stroke:none;" d="M242 143L243 144L242 143M425 143L426 144L425 143z"/>
<path style="fill:#fc839f; stroke:none;" d="M105 144L106 145L105 144M117 144L117 151L118 151L117 144M242 144L243 145L242 144M425 144L426 145L425 144z"/>
<path style="fill:#fcaeb4; stroke:none;" d="M102 145L101 147L102 145z"/>
<path style="fill:#fc839f; stroke:none;" d="M103 145L104 146L103 145z"/>
<path style="fill:#ff675e; stroke:none;" d="M104 145L105 146L104 145z"/>
<path style="fill:#fcaeb4; stroke:none;" d="M241 145L242 146L241 145M426 145L427 146L426 145z"/>
<path style="fill:#ff675e; stroke:none;" d="M102 146L103 147L102 146z"/>
<path style="fill:#fcaeb4; stroke:none;" d="M427 146L428 147L427 146M99 147L98 149L99 147z"/>
<path style="fill:#fc839f; stroke:none;" d="M100 147L101 148L100 147z"/>
<path style="fill:#ff675e; stroke:none;" d="M101 147L102 148L101 147z"/>
<path style="fill:#fcaeb4; stroke:none;" d="M240 147L241 148L240 147z"/>
<path style="fill:#fc839f; stroke:none;" d="M427 147L428 148L427 147z"/>
<path style="fill:#ff675e; stroke:none;" d="M99 148L100 149L99 148z"/>
<path style="fill:#fc839f; stroke:none;" d="M240 148L241 149L240 148z"/>
<path style="fill:#fcaeb4; stroke:none;" d="M428 148L430 150L428 148z"/>
<path style="fill:#fc839f; stroke:none;" d="M97 149L98 150L97 149z"/>
<path style="fill:#fcaeb4; stroke:none;" d="M239 149L240 150L239 149z"/>
<path style="fill:#fc839f; stroke:none;" d="M428 149L429 150L428 149z"/>
<path style="fill:#fcaeb4; stroke:none;" d="M95 150L96 151L95 150z"/>
<path style="fill:#ff675e; stroke:none;" d="M96 150L97 151L96 150z"/>
<path style="fill:#fc839f; stroke:none;" d="M239 150L240 151L239 150z"/>
<path style="fill:#fe4b6b; stroke:none;" d="M240.667 150.333L241.333 150.667L240.667 150.333z"/>
<path style="fill:#fc839f; stroke:none;" d="M429 150L430 151L429 150z"/>
<path style="fill:#fcaeb4; stroke:none;" d="M94 151L95 152L94 151z"/>
<path style="fill:#ff675e; stroke:none;" d="M117 151L117 156L118 156L117 151z"/>
<path style="fill:#fcaeb4; stroke:none;" d="M118 151L118 157L119 157L118 151M238 151L239 152L238 151z"/>
<path style="fill:#fe4b6b; stroke:none;" d="M242 151L243 152L242 151z"/>
<path style="fill:#fcaeb4; stroke:none;" d="M430 151L431 152L430 151z"/>
<path style="fill:#ff675e; stroke:none;" d="M93 152L94 153L93 152z"/>
<path style="fill:#fc839f; stroke:none;" d="M430 152L431 153L430 152z"/>
<path style="fill:#fcaeb4; stroke:none;" d="M91 153L92 154L91 153M237 153L238 154L237 153M431 153L433 155L431 153M90 154L91 155L90 154z"/>
<path style="fill:#fc839f; stroke:none;" d="M431 154L432 155L431 154M89 155L90 156L89 155z"/>
<path style="fill:#fcaeb4; stroke:none;" d="M236 155L237 156L236 155z"/>
<path style="fill:#fc839f; stroke:none;" d="M432 155L433 156L432 155z"/>
<path style="fill:#fcaeb4; stroke:none;" d="M87 156L85 159L87 156z"/>
<path style="fill:#ff675e; stroke:none;" d="M88 156L89 157L88 156z"/>
<path style="fill:#fcaeb4; stroke:none;" d="M433 156L434 157L433 156z"/>
<path style="fill:#ff675e; stroke:none;" d="M87 157L88 158L87 157z"/>
<path style="fill:#fc839f; stroke:none;" d="M118 157L118 161L119 161L118 157M235 157L236 158L235 157z"/>
<path style="fill:#ff675e; stroke:none;" d="M246 157L245 159L246 157z"/>
<path style="fill:#fc839f; stroke:none;" d="M433 157L434 158L433 157z"/>
<path style="fill:#ff675e; stroke:none;" d="M86 158L87 159L86 158z"/>
<path style="fill:#fcaeb4; stroke:none;" d="M234 158L235 159L234 158z"/>
<path style="fill:#ff675e; stroke:none;" d="M240 158L241 159L240 158z"/>
<path style="fill:#fcaeb4; stroke:none;" d="M434 158L435 161L436 161L434 158M83 159L78 165L83 159z"/>
<path style="fill:#fc839f; stroke:none;" d="M84 159L85 160L84 159M234 159L235 160L234 159M434 159L435 160L434 159M83 160L84 161L83 160z"/>
<path style="fill:#fcaeb4; stroke:none;" d="M119 160L119 165L120 165L119 160M233 160L232 162L233 160z"/>
<path style="fill:#ff675e; stroke:none;" d="M240 160L240 163L241 163L240 160M248.333 160.667L248.667 161.333L248.333 160.667z"/>
<path style="fill:#fc839f; stroke:none;" d="M82 161L83 162L82 161z"/>
<path style="fill:#ff675e; stroke:none;" d="M118.333 161.667L118.667 162.333L118.333 161.667z"/>
<path style="fill:#fc839f; stroke:none;" d="M233 161L232 163L233 161z"/>
<path style="fill:#ff675e; stroke:none;" d="M238 161L239 162L238 161z"/>
<path style="fill:#fcaeb4; stroke:none;" d="M436 161L437 162L436 161z"/>
<path style="fill:#ff675e; stroke:none;" d="M81 162L82 163L81 162M233 162L234 163L233 162M243 162L244 163L243 162z"/>
<path style="fill:#fc839f; stroke:none;" d="M436 162L437 163L436 162z"/>
<path style="fill:#ff675e; stroke:none;" d="M80 163L81 164L80 163z"/>
<path style="fill:#fcaeb4; stroke:none;" d="M231 163L229 167L230 167L231 163z"/>
<path style="fill:#ff675e; stroke:none;" d="M232 163L233 164L232 163z"/>
<path style="fill:#fcaeb4; stroke:none;" d="M437 163L438 164L437 163z"/>
<path style="fill:#ff675e; stroke:none;" d="M79 164L80 165L79 164z"/>
<path style="fill:#fc839f; stroke:none;" d="M231 164L232 165L231 164z"/>
<path style="fill:#ff675e; stroke:none;" d="M243 164L244 165L243 164z"/>
<path style="fill:#fc839f; stroke:none;" d="M437 164L438 165L437 164M77 165L78 166L77 165M119 165L119 168L120 168L119 165z"/>
<path style="fill:#ff675e; stroke:none;" d="M231 165L232 166L231 165z"/>
<path style="fill:#fcaeb4; stroke:none;" d="M438 165L439 166L438 165z"/>
<path style="fill:#fc839f; stroke:none;" d="M76 166L77 167L76 166z"/>
<path style="fill:#ff675e; stroke:none;" d="M230 166L231 167L230 166z"/>
<path style="fill:#fc839f; stroke:none;" d="M438 166L439 167L438 166M75 167L76 168L75 167M229 167L230 168L229 167z"/>
<path style="fill:#fcaeb4; stroke:none;" d="M439 167L440 168L439 167z"/>
<path style="fill:#fc839f; stroke:none;" d="M74 168L75 169L74 168z"/>
<path style="fill:#ff675e; stroke:none;" d="M119.333 168.667L119.667 169.333L119.333 168.667z"/>
<path style="fill:#fcaeb4; stroke:none;" d="M120 168L120 172L121 172L120 168M228 168L226 171L228 168z"/>
<path style="fill:#ff675e; stroke:none;" d="M229 168L230 169L229 168M73 169L74 170L73 169M228 169L229 170L228 169z"/>
<path style="fill:#fcaeb4; stroke:none;" d="M440 169L441 170L440 169z"/>
<path style="fill:#ff675e; stroke:none;" d="M72 170L73 171L72 170M227 170L228 171L227 170M71 171L72 172L71 171z"/>
<path style="fill:#fc839f; stroke:none;" d="M226 171L227 172L226 171z"/>
<path style="fill:#ff675e; stroke:none;" d="M245 171L246 172L245 171M249 171L250 172L249 171M255 171L256 172L255 171z"/>
<path style="fill:#fc839f; stroke:none;" d="M441 171L442 172L441 171z"/>
<path style="fill:#fcaeb4; stroke:none;" d="M69 172L66 176L69 172z"/>
<path style="fill:#ff675e; stroke:none;" d="M70 172L71 173L70 172z"/>
<path style="fill:#fc839f; stroke:none;" d="M120.333 172.667L120.667 173.333L120.333 172.667z"/>
<path style="fill:#fcaeb4; stroke:none;" d="M225 172L224 174L225 172z"/>
<path style="fill:#ff675e; stroke:none;" d="M247 172L249 174L247 172M258 172L262 177L258 172z"/>
<path style="fill:#fcaeb4; stroke:none;" d="M442 172L443 173L442 172z"/>
<path style="fill:#ff675e; stroke:none;" d="M69 173L70 174L69 173z"/>
<path style="fill:#fcaeb4; stroke:none;" d="M121 173L121 178L122 178L121 173z"/>
<path style="fill:#ff675e; stroke:none;" d="M225 173L226 174L225 173z"/>
<path style="fill:#fc839f; stroke:none;" d="M442 173L443 174L442 173z"/>
<path style="fill:#ff675e; stroke:none;" d="M68 174L69 175L68 174M120.333 174.667L120.667 175.333L120.333 174.667M224 174L225 175L224 174M254 174L253 176L254 174z"/>
<path style="fill:#fcaeb4; stroke:none;" d="M443 174L444 175L443 174z"/>
<path style="fill:#fc839f; stroke:none;" d="M67 175L68 176L67 175M223 175L224 176L223 175z"/>
<path style="fill:#ff675e; stroke:none;" d="M257 175L258 176L257 175z"/>
<path style="fill:#fc839f; stroke:none;" d="M443 175L444 176L443 175M66 176L67 177L66 176M222 176L223 177L222 176z"/>
<path style="fill:#fcaeb4; stroke:none;" d="M444 176L445 177L444 176z"/>
<path style="fill:#fc839f; stroke:none;" d="M65 177L66 178L65 177z"/>
<path style="fill:#fcaeb4; stroke:none;" d="M221 177L220 179L221 177z"/>
<path style="fill:#ff675e; stroke:none;" d="M222 177L223 178L222 177M263 177L265 179L263 177z"/>
<path style="fill:#fc839f; stroke:none;" d="M444 177L445 178L444 177M64 178L65 179L64 178M121 178L122 179L121 178z"/>
<path style="fill:#ff675e; stroke:none;" d="M221 178L222 179L221 178z"/>
<path style="fill:#fcaeb4; stroke:none;" d="M445 178L446 179L445 178z"/>
<path style="fill:#fc839f; stroke:none;" d="M63 179L64 180L63 179z"/>
<path style="fill:#ff675e; stroke:none;" d="M121.333 179.667L121.667 180.333L121.333 179.667z"/>
<path style="fill:#fcaeb4; stroke:none;" d="M122 179L122 183L123 183L122 179z"/>
<path style="fill:#ff675e; stroke:none;" d="M220 179L221 180L220 179M262 179L263 180L262 179z"/>
<path style="fill:#fc839f; stroke:none;" d="M445 179L446 180L445 179z"/>
<path style="fill:#fcaeb4; stroke:none;" d="M62 180L63 181L62 180z"/>
<path style="fill:#fc839f; stroke:none;" d="M219 180L217 183L219 180z"/>
<path style="fill:#ff675e; stroke:none;" d="M257.667 180.333L258.333 180.667L257.667 180.333M264 180L265 181L264 180z"/>
<path style="fill:#fcaeb4; stroke:none;" d="M446 180L447 181L446 180M61 181L62 182L61 181z"/>
<path style="fill:#ff675e; stroke:none;" d="M219 181L220 182L219 181M266 181L267 182L266 181z"/>
<path style="fill:#fc839f; stroke:none;" d="M446 181L447 182L446 181z"/>
<path style="fill:#fcaeb4; stroke:none;" d="M60 182L57 186L60 182z"/>
<path style="fill:#ff675e; stroke:none;" d="M218 182L219 183L218 182z"/>
<path style="fill:#fcaeb4; stroke:none;" d="M447 182L448 183L447 182z"/>
<path style="fill:#ff675e; stroke:none;" d="M60 183L61 184L60 183z"/>
<path style="fill:#fc839f; stroke:none;" d="M122 183L123 184L122 183z"/>
<path style="fill:#fcaeb4; stroke:none;" d="M216 183L208 192L216 183z"/>
<path style="fill:#ff675e; stroke:none;" d="M217 183L218 184L217 183M258 183L259 184L258 183z"/>
<path style="fill:#fc839f; stroke:none;" d="M447.333 183.667L447.667 184.333L447.333 183.667z"/>
<path style="fill:#ff675e; stroke:none;" d="M59 184L60 185L59 184M122 184L123 185L122 184M216 184L217 185L216 184z"/>
<path style="fill:#fcaeb4; stroke:none;" d="M448 184L450 190L451 190L448 184z"/>
<path style="fill:#ff675e; stroke:none;" d="M58 185L59 186L58 185z"/>
<path style="fill:#fcaeb4; stroke:none;" d="M123.333 185.667L123.667 186.333L123.333 185.667z"/>
<path style="fill:#ff675e; stroke:none;" d="M215 185L216 186L215 185M266 185L267 186L266 185z"/>
<path style="fill:#fc839f; stroke:none;" d="M57 186L58 187L57 186z"/>
<path style="fill:#ff675e; stroke:none;" d="M214 186L215 187L214 186M260 186L261 187L260 186z"/>
<path style="fill:#fc839f; stroke:none;" d="M448 186L449 187L448 186M56 187L57 188L56 187M123 187L124 188L123 187z"/>
<path style="fill:#ff675e; stroke:none;" d="M213 187L214 188L213 187M258.333 187.667L258.667 188.333L258.333 187.667M265 187L267 189L265 187z"/>
<path style="fill:#fc839f; stroke:none;" d="M55 188L56 189L55 188z"/>
<path style="fill:#ff675e; stroke:none;" d="M123 188L124 189L123 188M212 188L213 189L212 188z"/>
<path style="fill:#fc839f; stroke:none;" d="M449 188L450 189L449 188z"/>
<path style="fill:#fcaeb4; stroke:none;" d="M54 189L55 190L54 189M124.333 189.667L124.667 190.333L124.333 189.667z"/>
<path style="fill:#ff675e; stroke:none;" d="M211 189L212 190L211 189z"/>
<path style="fill:#fcaeb4; stroke:none;" d="M53 190L54 191L53 190z"/>
<path style="fill:#ff675e; stroke:none;" d="M210 190L211 191L210 190M264 190L266 192L264 190M268 190L269 191L268 190M270 190L273 192L273 191L270 190z"/>
<path style="fill:#fc839f; stroke:none;" d="M450 190L451 191L450 190z"/>
<path style="fill:#ff675e; stroke:none;" d="M53 191L54 192L53 191z"/>
<path style="fill:#fc839f; stroke:none;" d="M124 191L125 192L124 191z"/>
<path style="fill:#ff675e; stroke:none;" d="M209 191L210 192L209 191M261 191L261 192L264 193L261 191M274 191L275 192L274 191z"/>
<path style="fill:#fcaeb4; stroke:none;" d="M451 191L452 192L451 191z"/>
<path style="fill:#fc839f; stroke:none;" d="M52 192L53 193L52 192z"/>
<path style="fill:#ff675e; stroke:none;" d="M124 192L125 193L124 192z"/>
<path style="fill:#fcaeb4; stroke:none;" d="M207 192L208 193L207 192z"/>
<path style="fill:#fc839f; stroke:none;" d="M451 192L452 193L451 192M51 193L52 194L51 193z"/>
<path style="fill:#fcaeb4; stroke:none;" d="M125 193L126 194L125 193M206 193L207 194L206 193M452 193L453 197L454 197L452 193M50 194L48 197L50 194z"/>
<path style="fill:#fc839f; stroke:none;" d="M125 194L126 195L125 194z"/>
<path style="fill:#fcaeb4; stroke:none;" d="M205 194L206 195L205 194z"/>
<path style="fill:#ff675e; stroke:none;" d="M264 194L265 195L264 194M269.333 194.667L269.667 195.333L269.333 194.667M50 195L51 196L50 195M125 195L126 196L125 195z"/>
<path style="fill:#fc839f; stroke:none;" d="M204 195L205 196L204 195z"/>
<path style="fill:#ff675e; stroke:none;" d="M266 195L267 196L266 195M275 195L276 196L275 195z"/>
<path style="fill:#fc839f; stroke:none;" d="M452 195L453 196L452 195z"/>
<path style="fill:#ff675e; stroke:none;" d="M49 196L50 197L49 196z"/>
<path style="fill:#fcaeb4; stroke:none;" d="M126.333 196.667L126.667 197.333L126.333 196.667M202 196L199 200L202 196z"/>
<path style="fill:#fc839f; stroke:none;" d="M203 196L204 197L203 196M48 197L49 198L48 197M202 197L203 198L202 197z"/>
<path style="fill:#ff675e; stroke:none;" d="M267 197L268 198L267 197M273 197L272 199L273 197z"/>
<path style="fill:#fc839f; stroke:none;" d="M453 197L454 198L453 197z"/>
<path style="fill:#fcaeb4; stroke:none;" d="M47 198L45 201L47 198z"/>
<path style="fill:#fc839f; stroke:none;" d="M126 198L127 199L126 198z"/>
<path style="fill:#ff675e; stroke:none;" d="M201 198L202 199L201 198M270 198L271 199L270 198M278 198L278 199L282 202L278 198z"/>
<path style="fill:#fcaeb4; stroke:none;" d="M454.333 198.667L454.667 199.333L454.333 198.667z"/>
<path style="fill:#ff675e; stroke:none;" d="M47 199L48 200L47 199M200 199L201 200L200 199M275 199L277 201L275 199z"/>
<path style="fill:#fc839f; stroke:none;" d="M46 200L47 201L46 200z"/>
<path style="fill:#fcaeb4; stroke:none;" d="M127 200L128 201L127 200z"/>
<path style="fill:#fc839f; stroke:none;" d="M198 200L197 202L198 200z"/>
<path style="fill:#ff675e; stroke:none;" d="M199 200L200 201L199 200z"/>
<path style="fill:#fcaeb4; stroke:none;" d="M455.333 200.667L455.667 201.333L455.333 200.667z"/>
<path style="fill:#fc839f; stroke:none;" d="M45 201L46 202L45 201z"/>
<path style="fill:#ff675e; stroke:none;" d="M127 201L128 202L127 201z"/>
<path style="fill:#fcaeb4; stroke:none;" d="M196 201L194 204L196 201z"/>
<path style="fill:#ff675e; stroke:none;" d="M198 201L199 202L198 201M273.333 201.667L273.667 202.333L273.333 201.667z"/>
<path style="fill:#fcaeb4; stroke:none;" d="M44 202L43 204L44 202z"/>
<path style="fill:#ff675e; stroke:none;" d="M196 202L197 203L196 202M276.333 202.667L276.667 203.333L276.333 202.667z"/>
<path style="fill:#fc839f; stroke:none;" d="M455 202L456 203L455 202z"/>
<path style="fill:#ff675e; stroke:none;" d="M44 203L45 204L44 203z"/>
<path style="fill:#fcaeb4; stroke:none;" d="M128 203L129 204L128 203z"/>
<path style="fill:#ff675e; stroke:none;" d="M195 203L196 204L195 203M283 203L284 204L283 203z"/>
<path style="fill:#fcaeb4; stroke:none;" d="M456 203L457 204L456 203z"/>
<path style="fill:#fc839f; stroke:none;" d="M43 204L44 205L43 204z"/>
<path style="fill:#ff675e; stroke:none;" d="M128 204L129 205L128 204z"/>
<path style="fill:#fcaeb4; stroke:none;" d="M192 204L191 206L192 204z"/>
<path style="fill:#fc839f; stroke:none;" d="M193 204L194 205L193 204z"/>
<path style="fill:#ff675e; stroke:none;" d="M194 204L195 205L194 204z"/>
<path style="fill:#fc839f; stroke:none;" d="M456 204L457 205L456 204z"/>
<path style="fill:#fcaeb4; stroke:none;" d="M42 205L43 206L42 205z"/>
<path style="fill:#ff675e; stroke:none;" d="M192 205L193 206L192 205M277 205L278 206L277 205M279 205L280 206L279 205z"/>
<path style="fill:#fcaeb4; stroke:none;" d="M457.333 205.667L457.667 206.333L457.333 205.667M41 206L42 207L41 206M129 206L130 207L129 206z"/>
<path style="fill:#fc839f; stroke:none;" d="M190 206L191 207L190 206z"/>
<path style="fill:#ff675e; stroke:none;" d="M191 206L192 207L191 206M41 207L42 208L41 207M129 207L130 208L129 207z"/>
<path style="fill:#fcaeb4; stroke:none;" d="M188 207L189 208L188 207z"/>
<path style="fill:#ff675e; stroke:none;" d="M189 207L190 208L189 207M281 207L282 208L281 207z"/>
<path style="fill:#fc839f; stroke:none;" d="M457 207L458 208L457 207M40 208L41 209L40 208z"/>
<path style="fill:#fcaeb4; stroke:none;" d="M130 208L131 209L130 208M187 208L188 209L187 208M458 208L459 209L458 208M39 209L40 210L39 209z"/>
<path style="fill:#fc839f; stroke:none;" d="M130 209L131 210L130 209z"/>
<path style="fill:#fcaeb4; stroke:none;" d="M185 209L186 210L185 209z"/>
<path style="fill:#ff675e; stroke:none;" d="M186 209L187 210L186 209M279 209L280 210L279 209M283 209L284 210L283 209M285 209L286 210L285 209z"/>
<path style="fill:#fc839f; stroke:none;" d="M458 209L459 210L458 209z"/>
<path style="fill:#ff675e; stroke:none;" d="M39 210L40 211L39 210z"/>
<path style="fill:#fc839f; stroke:none;" d="M184 210L185 211L184 210M38 211L39 212L38 211M131 211L132 212L131 211z"/>
<path style="fill:#fcaeb4; stroke:none;" d="M182 211L183 212L182 211z"/>
<path style="fill:#ff675e; stroke:none;" d="M183 211L184 212L183 211M288 211L289 212L288 211z"/>
<path style="fill:#fcaeb4; stroke:none;" d="M459 211L460 212L459 211M37 212L38 213L37 212z"/>
<path style="fill:#ff675e; stroke:none;" d="M131 212L132 213L131 212z"/>
<path style="fill:#fcaeb4; stroke:none;" d="M180 212L179 214L180 212z"/>
<path style="fill:#fc839f; stroke:none;" d="M181 212L182 213L181 212z"/>
<path style="fill:#ff675e; stroke:none;" d="M284 212L285 213L284 212z"/>
<path style="fill:#fc839f; stroke:none;" d="M459 212L460 213L459 212z"/>
<path style="fill:#ff675e; stroke:none;" d="M37 213L38 214L37 213z"/>
<path style="fill:#fcaeb4; stroke:none;" d="M132 213L133 214L132 213z"/>
<path style="fill:#ff675e; stroke:none;" d="M180 213L181 214L180 213z"/>
<path style="fill:#fe4b6b; stroke:none;" d="M295 213L297 217L298 217L295 213z"/>
<path style="fill:#fcaeb4; stroke:none;" d="M460.333 213.667L460.667 214.333L460.333 213.667z"/>
<path style="fill:#fc839f; stroke:none;" d="M36 214L37 215L36 214z"/>
<path style="fill:#ff675e; stroke:none;" d="M132.333 214.667L132.667 215.333L132.333 214.667z"/>
<path style="fill:#fcaeb4; stroke:none;" d="M177 214L178 215L177 214z"/>
<path style="fill:#fc839f; stroke:none;" d="M178 214L179 215L178 214z"/>
<path style="fill:#ff675e; stroke:none;" d="M280 214L280 215L284 217L284 216L280 214M285 214L286 215L285 214z"/>
<path style="fill:#fcaeb4; stroke:none;" d="M35 215L36 216L35 215M133 215L134 216L133 215M175 215L176 216L175 215z"/>
<path style="fill:#fc839f; stroke:none;" d="M176 215L177 216L176 215z"/>
<path style="fill:#ff675e; stroke:none;" d="M177 215L178 216L177 215M291 215L292 216L291 215M35 216L36 217L35 216z"/>
<path style="fill:#fc839f; stroke:none;" d="M133 216L134 217L133 216z"/>
<path style="fill:#fcaeb4; stroke:none;" d="M173 216L165 220L165 221L174 217L173 216z"/>
<path style="fill:#fc839f; stroke:none;" d="M174 216L175 217L174 216z"/>
<path style="fill:#ff675e; stroke:none;" d="M175 216L176 217L175 216z"/>
<path style="fill:#fcaeb4; stroke:none;" d="M461 216L462 217L461 216M34 217L35 218L34 217z"/>
<path style="fill:#ff675e; stroke:none;" d="M133 217L134 218L133 217z"/>
<path style="fill:#fcaeb4; stroke:none;" d="M134 217L135 218L134 217z"/>
<path style="fill:#ff675e; stroke:none;" d="M173 217L174 218L173 217z"/>
<path style="fill:#fc839f; stroke:none;" d="M461 217L462 218L461 217z"/>
<path style="fill:#fcaeb4; stroke:none;" d="M33 218L34 219L33 218z"/>
<path style="fill:#fc839f; stroke:none;" d="M134 218L135 219L134 218z"/>
<path style="fill:#ff675e; stroke:none;" d="M171 218L172 219L171 218z"/>
<path style="fill:#fc839f; stroke:none;" d="M33 219L34 220L33 219z"/>
<path style="fill:#ff675e; stroke:none;" d="M134 219L135 220L134 219z"/>
<path style="fill:#fcaeb4; stroke:none;" d="M135 219L136 220L135 219z"/>
<path style="fill:#fc839f; stroke:none;" d="M169 219L170 220L169 219z"/>
<path style="fill:#fcaeb4; stroke:none;" d="M462 219L463 220L462 219M32 220L31 222L32 220z"/>
<path style="fill:#fc839f; stroke:none;" d="M135 220L136 221L135 220M167 220L168 221L167 220z"/>
<path style="fill:#ff675e; stroke:none;" d="M296 220L297 221L296 220z"/>
<path style="fill:#fc839f; stroke:none;" d="M462 220L463 221L462 220z"/>
<path style="fill:#ff675e; stroke:none;" d="M32 221L33 222L32 221z"/>
<path style="fill:#fcaeb4; stroke:none;" d="M136 221L138 225L139 225L136 221M163 221L164 222L163 221z"/>
<path style="fill:#fc839f; stroke:none;" d="M164 221L165 222L164 221z"/>
<path style="fill:#ff675e; stroke:none;" d="M165 221L166 222L165 221z"/>
<path style="fill:#fc839f; stroke:none;" d="M31 222L32 223L31 222M136 222L137 223L136 222z"/>
<path style="fill:#fcaeb4; stroke:none;" d="M161 222L162 223L161 222z"/>
<path style="fill:#fc839f; stroke:none;" d="M162 222L163 223L162 222z"/>
<path style="fill:#ff675e; stroke:none;" d="M163 222L164 223L163 222M296 222L297 223L296 222M299 222L298 224L299 222z"/>
<path style="fill:#fcaeb4; stroke:none;" d="M463 222L464 223L463 222M30 223L31 224L30 223z"/>
<path style="fill:#ff675e; stroke:none;" d="M31 223L32 224L31 223z"/>
<path style="fill:#fcaeb4; stroke:none;" d="M159 223L160 224L159 223z"/>
<path style="fill:#fc839f; stroke:none;" d="M160 223L161 224L160 223z"/>
<path style="fill:#ff675e; stroke:none;" d="M161 223L162 224L161 223M294 223L295 224L294 223z"/>
<path style="fill:#fc839f; stroke:none;" d="M463.333 223.667L463.667 224.333L463.333 223.667M30 224L31 225L30 224z"/>
<path style="fill:#ff675e; stroke:none;" d="M137 224L138 225L137 224z"/>
<path style="fill:#fcaeb4; stroke:none;" d="M157 224L158 225L157 224z"/>
<path style="fill:#fc839f; stroke:none;" d="M158 224L159 225L158 224z"/>
<path style="fill:#ff675e; stroke:none;" d="M159 224L160 225L159 224z"/>
<path style="fill:#fcaeb4; stroke:none;" d="M29 225L30 226L29 225z"/>
<path style="fill:#fc839f; stroke:none;" d="M138 225L139 226L138 225z"/>
<path style="fill:#fcaeb4; stroke:none;" d="M154 225L155 226L154 225z"/>
<path style="fill:#fc839f; stroke:none;" d="M155 225L156 226L155 225z"/>
<path style="fill:#ff675e; stroke:none;" d="M156 225L157 226L156 225z"/>
<path style="fill:#fcaeb4; stroke:none;" d="M464.333 225.667L464.667 226.333L464.333 225.667z"/>
<path style="fill:#fc839f; stroke:none;" d="M29 226L30 227L29 226z"/>
<path style="fill:#fcaeb4; stroke:none;" d="M139 226L141 228L139 226M152 226L153 227L152 226z"/>
<path style="fill:#fc839f; stroke:none;" d="M153 226L154 227L153 226z"/>
<path style="fill:#ff675e; stroke:none;" d="M295 226L296 227L295 226M303 226L304 227L303 226z"/>
<path style="fill:#fcaeb4; stroke:none;" d="M28 227L26 231L27 231L28 227z"/>
<path style="fill:#ff675e; stroke:none;" d="M139 227L140 228L139 227z"/>
<path style="fill:#fc839f; stroke:none;" d="M150 227L151 228L150 227z"/>
<path style="fill:#ff675e; stroke:none;" d="M151 227L152 228L151 227z"/>
<path style="fill:#fc839f; stroke:none;" d="M464 227L465 228L464 227z"/>
<path style="fill:#ff675e; stroke:none;" d="M28 228L29 229L28 228z"/>
<path style="fill:#fc839f; stroke:none;" d="M140 228L141 229L140 228z"/>
<path style="fill:#fcaeb4; stroke:none;" d="M147 228L148 229L147 228z"/>
<path style="fill:#ff675e; stroke:none;" d="M148 228L149 229L148 228M292 228L293 229L292 228M298 228L299 229L298 228M300 228L301 229L300 228M305 228L305 230L307 230L305 228z"/>
<path style="fill:#fcaeb4; stroke:none;" d="M465.333 228.667L465.667 229.333L465.333 228.667M141 229L142 230L141 229M144 229L145 230L144 229z"/>
<path style="fill:#fc839f; stroke:none;" d="M145 229L146 230L145 229z"/>
<path style="fill:#ff675e; stroke:none;" d="M294 229L295 230L294 229M27 230L28 231L27 230M141 230L142 231L141 230z"/>
<path style="fill:#fc839f; stroke:none;" d="M142 230L143 231L142 230z"/>
<path style="fill:#ff675e; stroke:none;" d="M143 230L144 231L143 230M308 230L307 232L309 232L308 230z"/>
<path style="fill:#fc839f; stroke:none;" d="M465.333 230.667L465.667 231.333L465.333 230.667M26 231L27 232L26 231z"/>
<path style="fill:#fcaeb4; stroke:none;" d="M466.333 231.667L466.667 232.333L466.333 231.667M25 232L26 233L25 232z"/>
<path style="fill:#ff675e; stroke:none;" d="M26 232L27 233L26 232M300 232L301 233L300 232z"/>
<path style="fill:#fc839f; stroke:none;" d="M25 233L26 234L25 233M466.333 233.667L466.667 234.333L466.333 233.667z"/>
<path style="fill:#fcaeb4; stroke:none;" d="M24 234L25 235L24 234z"/>
<path style="fill:#ff675e; stroke:none;" d="M301 234L300 237L301 237L301 234z"/>
<path style="fill:#fcaeb4; stroke:none;" d="M467 234L467 237L468 237L467 234z"/>
<path style="fill:#fc839f; stroke:none;" d="M24 235L25 236L24 235z"/>
<path style="fill:#fcaeb4; stroke:none;" d="M23 236L24 237L23 236z"/>
<path style="fill:#ff675e; stroke:none;" d="M306.333 236.667L306.667 237.333L306.333 236.667z"/>
<path style="fill:#fc839f; stroke:none;" d="M23 237L24 238L23 237z"/>
<path style="fill:#ff675e; stroke:none;" d="M303 237L304 238L303 237M313 237L316 242L317 241L313 237z"/>
<path style="fill:#fc839f; stroke:none;" d="M467.333 237.667L467.667 238.333L467.333 237.667z"/>
<path style="fill:#fcaeb4; stroke:none;" d="M22 238L23 239L22 238z"/>
<path style="fill:#ff675e; stroke:none;" d="M300 238L301 239L300 238z"/>
<path style="fill:#fcaeb4; stroke:none;" d="M468 238L468 241L469 241L468 238z"/>
<path style="fill:#fc839f; stroke:none;" d="M22 239L23 240L22 239z"/>
<path style="fill:#fcaeb4; stroke:none;" d="M21 240L22 241L21 240z"/>
<path style="fill:#ff675e; stroke:none;" d="M309 240L310 241L309 240M311 240L312 241L311 240z"/>
<path style="fill:#fc839f; stroke:none;" d="M21 241L22 242L21 241M468.333 241.667L468.667 242.333L468.333 241.667z"/>
<path style="fill:#fcaeb4; stroke:none;" d="M20 242L21 243L20 242M469 242L469 245L470 245L469 242z"/>
<path style="fill:#fc839f; stroke:none;" d="M20 243L21 244L20 243z"/>
<path style="fill:#ff675e; stroke:none;" d="M314 243L315 244L314 243z"/>
<path style="fill:#fc839f; stroke:none;" d="M19 245L20 246L19 245z"/>
<path style="fill:#ff675e; stroke:none;" d="M311 245L312 246L311 245z"/>
<path style="fill:#fc839f; stroke:none;" d="M469.333 245.667L469.667 246.333L469.333 245.667z"/>
<path style="fill:#ff675e; stroke:none;" d="M314 246L315 247L314 246M318 246L319 247L318 246z"/>
<path style="fill:#fcaeb4; stroke:none;" d="M470 246L470 249L471 249L470 246z"/>
<path style="fill:#fc839f; stroke:none;" d="M18 247L19 248L18 247z"/>
<path style="fill:#ff675e; stroke:none;" d="M320 247L321 248L320 247z"/>
<path style="fill:#fcaeb4; stroke:none;" d="M17 249L18 250L17 249z"/>
<path style="fill:#fe4b6b; stroke:none;" d="M326 249L328 251L326 249z"/>
<path style="fill:#fc839f; stroke:none;" d="M470.333 249.667L470.667 250.333L470.333 249.667z"/>
<path style="fill:#ff675e; stroke:none;" d="M17 250L18 251L17 250M318 250L316 251L316 252L318 250z"/>
<path style="fill:#fcaeb4; stroke:none;" d="M471 250L471 253L472 253L471 250M16 251L17 252L16 251z"/>
<path style="fill:#ff675e; stroke:none;" d="M312 251L313 252L312 251M321.667 251.333L322.333 251.667L321.667 251.333z"/>
<path style="fill:#fc839f; stroke:none;" d="M16 252L17 253L16 252z"/>
<path style="fill:#ff675e; stroke:none;" d="M316 253L317 254L316 253M325 253L326 254L325 253M327 253L328 254L327 253z"/>
<path style="fill:#fc839f; stroke:none;" d="M471.333 253.667L471.667 254.333L471.333 253.667M15 254L16 255L15 254z"/>
<path style="fill:#ff675e; stroke:none;" d="M15 255L16 256L15 255M319 255L317 258L318 259L319 259L320 258L319 255z"/>
<path style="fill:#fcaeb4; stroke:none;" d="M472 255L472 258L473 258L472 255M14 256L15 257L14 256z"/>
<path style="fill:#ff675e; stroke:none;" d="M326 256L327 257L326 256z"/>
<path style="fill:#fc839f; stroke:none;" d="M14 257L15 258L14 257z"/>
<path style="fill:#fe4b6b; stroke:none;" d="M318 257L319 258L318 257z"/>
<path style="fill:#ff675e; stroke:none;" d="M330 257L331 258L330 257z"/>
<path style="fill:#fcaeb4; stroke:none;" d="M13 258L14 259L13 258z"/>
<path style="fill:#ff675e; stroke:none;" d="M14 258L15 259L14 258z"/>
<path style="fill:#fc839f; stroke:none;" d="M472 258L473 259L472 258M13 259L14 260L13 259z"/>
<path style="fill:#fcaeb4; stroke:none;" d="M473 259L473 262L474 262L473 259z"/>
<path style="fill:#ff675e; stroke:none;" d="M13 260L14 261L13 260M319 260L320 261L319 260z"/>
<path style="fill:#fcaeb4; stroke:none;" d="M12 261L13 262L12 261z"/>
<path style="fill:#ff675e; stroke:none;" d="M321 261L323 263L321 261z"/>
<path style="fill:#fc839f; stroke:none;" d="M12 262L13 263L12 262z"/>
<path style="fill:#ff675e; stroke:none;" d="M326 262L327 263L326 262M332 262L333 263L332 262z"/>
<path style="fill:#fc839f; stroke:none;" d="M473.333 262.667L473.667 263.333L473.333 262.667z"/>
<path style="fill:#fcaeb4; stroke:none;" d="M11.3333 263.667L11.6667 264.333L11.3333 263.667z"/>
<path style="fill:#ff675e; stroke:none;" d="M12 263L13 264L12 263M333 264L334 265L333 264z"/>
<path style="fill:#fcaeb4; stroke:none;" d="M474 264L474 268L475 268L474 264z"/>
<path style="fill:#fc839f; stroke:none;" d="M11 265L12 266L11 265z"/>
<path style="fill:#ff675e; stroke:none;" d="M330 265L329 268L330 265z"/>
<path style="fill:#fcaeb4; stroke:none;" d="M10.3333 266.667L10.6667 267.333L10.3333 266.667z"/>
<path style="fill:#ff675e; stroke:none;" d="M11 266L12 267L11 266M326 267L327 268L326 267z"/>
<path style="fill:#fc839f; stroke:none;" d="M10 268L11 269L10 268z"/>
<path style="fill:#ff675e; stroke:none;" d="M339 268L340 269L339 268z"/>
<path style="fill:#fc839f; stroke:none;" d="M474 268L475 269L474 268z"/>
<path style="fill:#fcaeb4; stroke:none;" d="M9.33333 269.667L9.66667 270.333L9.33333 269.667z"/>
<path style="fill:#ff675e; stroke:none;" d="M10 269L11 270L10 269M332 269L333 270L332 269M329 270L330 271L329 270M340.667 270.333L341.333 270.667L340.667 270.333z"/>
<path style="fill:#fc839f; stroke:none;" d="M9 271L10 272L9 271z"/>
<path style="fill:#ff675e; stroke:none;" d="M332 273L335 272L332 273M336 271L338 273L336 271z"/>
<path style="fill:#fcaeb4; stroke:none;" d="M475 271L475 274L476 274L475 271M8.33333 272.667L8.66667 273.333L8.33333 272.667z"/>
<path style="fill:#ff675e; stroke:none;" d="M9 272L10 273L9 272M342 272L343 273L342 272z"/>
<path style="fill:#fc839f; stroke:none;" d="M8 274L9 275L8 274z"/>
<path style="fill:#ff675e; stroke:none;" d="M335 274L336 275L335 274M337 274L338 275L337 274M339 274L340 275L339 274z"/>
<path style="fill:#fc839f; stroke:none;" d="M475 274L476 275L475 274z"/>
<path style="fill:#fcaeb4; stroke:none;" d="M7 275L7 278L8 278L7 275z"/>
<path style="fill:#ff675e; stroke:none;" d="M8 275L9 276L8 275z"/>
<path style="fill:#fe4b6b; stroke:none;" d="M345 275L350 280L345 275z"/>
<path style="fill:#ff675e; stroke:none;" d="M337 276L338 277L337 276z"/>
<path style="fill:#fcaeb4; stroke:none;" d="M476 277L476 280L477 280L476 277z"/>
<path style="fill:#fc839f; stroke:none;" d="M7 278L8 279L7 278z"/>
<path style="fill:#fcaeb4; stroke:none;" d="M6.33333 279.667L6.66667 280.333L6.33333 279.667z"/>
<path style="fill:#ff675e; stroke:none;" d="M336 280L337 281L336 280z"/>
<path style="fill:#fc839f; stroke:none;" d="M476.333 280.667L476.667 281.333L476.333 280.667M6.33333 281.667L6.66667 282.333L6.33333 281.667z"/>
<path style="fill:#ff675e; stroke:none;" d="M346 281L347 282L346 281M337 282L338 283L337 282z"/>
<path style="fill:#fcaeb4; stroke:none;" d="M5.33333 283.667L5.66667 284.333L5.33333 283.667z"/>
<path style="fill:#fe4b6b; stroke:none;" d="M352 283L355 286L352 283z"/>
<path style="fill:#fcaeb4; stroke:none;" d="M477 284L477 288L478 288L477 284z"/>
<path style="fill:#fc839f; stroke:none;" d="M5 285L6 286L5 285z"/>
<path style="fill:#ff675e; stroke:none;" d="M341 285L341 287L343 285L341 285M345 285L344 287L346 287L345 285z"/>
<path style="fill:#fe4b6b; stroke:none;" d="M356 285L357 289L358 289L359 287L356 285z"/>
<path style="fill:#ff675e; stroke:none;" d="M5 286L6 287L5 286z"/>
<path style="fill:#fcaeb4; stroke:none;" d="M4.33333 287.667L4.66667 288.333L4.33333 287.667z"/>
<path style="fill:#ff675e; stroke:none;" d="M344.667 288.333L345.333 288.667L344.667 288.333z"/>
<path style="fill:#fc839f; stroke:none;" d="M477.333 288.667L477.667 289.333L477.333 288.667M4.33333 289.667L4.66667 290.333L4.33333 289.667z"/>
<path style="fill:#ff675e; stroke:none;" d="M352 289L353 290L352 289M350 291L352 293L350 291M353 291L354 292L353 291z"/>
<path style="fill:#fcaeb4; stroke:none;" d="M3.33333 292.667L3.66667 293.333L3.33333 292.667z"/>
<path style="fill:#ff675e; stroke:none;" d="M355 293L356 294L355 293M360 293L361 294L360 293z"/>
<path style="fill:#fcaeb4; stroke:none;" d="M478 293L478 297L479 297L478 293z"/>
<path style="fill:#fc839f; stroke:none;" d="M3 294L4 295L3 294z"/>
<path style="fill:#ff675e; stroke:none;" d="M350 294L351 295L350 294M3 295L4 296L3 295M354.667 295.333L355.333 295.667L354.667 295.333z"/>
<path style="fill:#fcaeb4; stroke:none;" d="M2.33333 297.667L2.66667 298.333L2.33333 297.667z"/>
<path style="fill:#ff675e; stroke:none;" d="M351 297L353 300L351 297M358.667 297.333L359.333 297.667L358.667 297.333z"/>
<path style="fill:#fc839f; stroke:none;" d="M478 297L478 300L479 300L478 297z"/>
<path style="fill:#ff675e; stroke:none;" d="M363 298L364 299L363 298z"/>
<path style="fill:#fc839f; stroke:none;" d="M2.33333 299.667L2.66667 300.333L2.33333 299.667z"/>
<path style="fill:#ff675e; stroke:none;" d="M2 301L3 302L2 301M363 301L364 302L363 301z"/>
<path style="fill:#fcaeb4; stroke:none;" d="M1.33333 304.667L1.66667 305.333L1.33333 304.667M479 304L479 311L480 311L479 304z"/>
<path style="fill:#fc839f; stroke:none;" d="M1.33333 306.667L1.66667 307.333L1.33333 306.667z"/>
<path style="fill:#ff675e; stroke:none;" d="M372 306L373 307L372 306M358 307L359 308L358 307M361 307L362 308L361 307M367 308L369 310L367 308M372 308L373 309L372 308M361 309L362 310L361 309M363 309L364 310L363 309M371 310L372 311L371 310M375 310L376 311L375 310z"/>
<path style="fill:#fcaeb4; stroke:none;" d="M0 311L0 314L1 314L0 311z"/>
<path style="fill:#ff675e; stroke:none;" d="M362 312L362 313L365 313L362 312M369 311L370 312L369 311z"/>
<path style="fill:#fc839f; stroke:none;" d="M479 311L479 317L480 317L479 311z"/>
<path style="fill:#ff675e; stroke:none;" d="M376.667 312.333L377.333 312.667L376.667 312.333M369 313L370 314L369 313z"/>
<path style="fill:#fc839f; stroke:none;" d="M0 314L0 317L1 317L0 314z"/>
<path style="fill:#ff675e; stroke:none;" d="M368 315L369 316L368 315M374 315L375 316L374 315M377 316L378 317L377 316M0 317L0 320L1 320L0 317M368 317L369 318L368 317M375 318L376 319L375 318M373 319L374 320L373 319M376 323L376 324L379 325L379 322L376 323M374 323L375 324L374 323M386 324L388 326L386 324M384 326L385 327L384 326M377 327L378 328L377 327M388 327L389 328L388 327M386 328L388 330L386 328M387 332L388 333L387 332M380 333L381 334L380 333M389 333L390 334L389 333M391 333L392 334L391 333M384 334L385 335L384 334M391 335L392 336L391 335M396 335L397 336L396 335M385 336L386 337L385 336M389 336L390 337L389 336M393.333 337.667L393.667 338.333L393.333 337.667M396 337L396 338L399 338L399 337L396 337M385 338L386 339L385 338z"/>
<path style="fill:#fe4b6b; stroke:none;" d="M401 339L402 340L401 339z"/>
<path style="fill:#ff675e; stroke:none;" d="M386 340L387 341L386 340z"/>
<path style="fill:#fc839f; stroke:none;" d="M479 340L479 345L480 345L479 340z"/>
<path style="fill:#ff675e; stroke:none;" d="M0 341L0 346L1 346L0 341M393 341L394 342L393 341M388.667 342.333L389.333 342.667L388.667 342.333M393.667 343.333L394.333 343.667L393.667 343.333M393.333 345.667L393.667 346.333L393.333 345.667M397 345L397 346L400 346L400 345L397 345z"/>
<path style="fill:#fcaeb4; stroke:none;" d="M479 345L479 350L480 350L479 345z"/>
<path style="fill:#fc839f; stroke:none;" d="M0 346L0 349L1 349L0 346z"/>
<path style="fill:#ff675e; stroke:none;" d="M402 348L401 350L402 348M404 348L405 349L404 348z"/>
<path style="fill:#fcaeb4; stroke:none;" d="M0 349L0 352L1 352L0 349z"/>
<path style="fill:#fe4b6b; stroke:none;" d="M409.333 349.667L409.667 350.333L409.333 349.667z"/>
<path style="fill:#fafafa; stroke:none;" d="M479 350C478.943 436.641 412.815 518.551 336 551.421C313.467 561.063 287.733 568.932 263 569L263 570L480 570L480 415L480 371L479 350z"/>
<path style="fill:#ff675e; stroke:none;" d="M406 351L407 352L406 351z"/>
<path style="fill:#fafafa; stroke:none;" d="M0 352L0 570L216 570L216 569C136.429 568.78 56.9754 513.153 24.3086 442C16.2248 424.392 9.40535 406.022 5.60031 387C3.45437 376.272 4.14112 361.865 0 352z"/>
<path style="fill:#ff675e; stroke:none;" d="M401.333 353.667L401.667 354.333L401.333 353.667M406 354L407 355L406 354z"/>
<path style="fill:#fc839f; stroke:none;" d="M478.333 354.667L478.667 355.333L478.333 354.667z"/>
<path style="fill:#ff675e; stroke:none;" d="M1 356L2 357L1 356M407 356L408 357L407 356M413 356L414 357L413 356z"/>
<path style="fill:#fcaeb4; stroke:none;" d="M478 356L478 360L479 360L478 356z"/>
<path style="fill:#fc839f; stroke:none;" d="M1 357L1 360L2 360L1 357z"/>
<path style="fill:#ff675e; stroke:none;" d="M401 357L402 358L401 357M410 358L411 359L410 358M414.667 358.333L415.333 358.667L414.667 358.333z"/>
<path style="fill:#fcaeb4; stroke:none;" d="M1.33333 360.667L1.66667 361.333L1.33333 360.667z"/>
<path style="fill:#ff675e; stroke:none;" d="M405 360L406 361L405 360M408 360L409 361L408 360M416 360L417 361L416 360M414 361L415 362L414 361M408.667 362.333L409.333 362.667L408.667 362.333z"/>
<path style="fill:#fc839f; stroke:none;" d="M477.333 363.667L477.667 364.333L477.333 363.667z"/>
<path style="fill:#ff675e; stroke:none;" d="M2.33333 364.667L2.66667 365.333L2.33333 364.667M410 364L411 365L410 364M416 364L415 366L416 364M407 365L408 366L407 365z"/>
<path style="fill:#fcaeb4; stroke:none;" d="M477 365L477 368L478 368L477 365z"/>
<path style="fill:#fc839f; stroke:none;" d="M2 366L3 367L2 366z"/>
<path style="fill:#fcaeb4; stroke:none;" d="M2 367L2 370L3 370L2 367z"/>
<path style="fill:#ff675e; stroke:none;" d="M409 367L410 368L409 367M418 367L419 368L418 367M416 368L417 369L416 368z"/>
<path style="fill:#fc839f; stroke:none;" d="M476.333 369.667L476.667 370.333L476.333 369.667z"/>
<path style="fill:#fcaeb4; stroke:none;" d="M476.333 371.667L476.667 372.333L476.333 371.667z"/>
<path style="fill:#fc839f; stroke:none;" d="M3.33333 372.667L3.66667 373.333L3.33333 372.667z"/>
<path style="fill:#ff675e; stroke:none;" d="M416 372L417 373L416 372M423 373L424 374L423 373M426 373L430 376L430 375L429 373L426 373z"/>
<path style="fill:#fcaeb4; stroke:none;" d="M3 374L3 377L4 377L3 374z"/>
<path style="fill:#ff675e; stroke:none;" d="M421.333 375.667L421.667 376.333L421.333 375.667z"/>
<path style="fill:#fc839f; stroke:none;" d="M475 375L476 376L475 375z"/>
<path style="fill:#ff675e; stroke:none;" d="M425 376L426 377L425 376z"/>
<path style="fill:#fcaeb4; stroke:none;" d="M475 376L475 379L476 379L475 376z"/>
<path style="fill:#ff675e; stroke:none;" d="M430 377L431 378L430 377z"/>
<path style="fill:#fc839f; stroke:none;" d="M4.33333 378.667L4.66667 379.333L4.33333 378.667z"/>
<path style="fill:#fcaeb4; stroke:none;" d="M4.33333 380.667L4.66667 381.333L4.33333 380.667z"/>
<path style="fill:#ff675e; stroke:none;" d="M420.667 380.333L421.333 380.667L420.667 380.333M431 380L431 381L434 381L434 380L431 380z"/>
<path style="fill:#fc839f; stroke:none;" d="M474.333 380.667L474.667 381.333L474.333 380.667z"/>
<path style="fill:#ff675e; stroke:none;" d="M425 381L426 382L425 381M435 382L436 383L435 382z"/>
<path style="fill:#fcaeb4; stroke:none;" d="M474 382L474 385L475 385L474 382z"/>
<path style="fill:#fc839f; stroke:none;" d="M5.33333 383.667L5.66667 384.333L5.33333 383.667z"/>
<path style="fill:#ff675e; stroke:none;" d="M425 384L426 385L425 384M429 384L430 385L429 384M432 384L433 385L432 384z"/>
<path style="fill:#fc839f; stroke:none;" d="M473.333 384.667L473.667 385.333L473.333 384.667z"/>
<path style="fill:#fcaeb4; stroke:none;" d="M5.33333 385.667L5.66667 386.333L5.33333 385.667z"/>
<path style="fill:#ff675e; stroke:none;" d="M434 385L435 386L434 385M428 386L429 387L428 386z"/>
<path style="fill:#fcaeb4; stroke:none;" d="M473 386L473 389L474 389L473 386z"/>
<path style="fill:#ff675e; stroke:none;" d="M6 387L7 388L6 387z"/>
<path style="fill:#fc839f; stroke:none;" d="M6 388L7 389L6 388z"/>
<path style="fill:#ff675e; stroke:none;" d="M430 388L430 390L432 388L430 388M433 388L434 389L433 388z"/>
<path style="fill:#fcaeb4; stroke:none;" d="M6 389L6 392L7 392L6 389z"/>
<path style="fill:#fc839f; stroke:none;" d="M472 389L473 390L472 389z"/>
<path style="fill:#fcaeb4; stroke:none;" d="M472 390L472 393L473 393L472 390z"/>
<path style="fill:#fc839f; stroke:none;" d="M7.33333 392.667L7.66667 393.333L7.33333 392.667z"/>
<path style="fill:#ff675e; stroke:none;" d="M439 392L440 393L439 392M431 393L432 394L431 393z"/>
<path style="fill:#fc839f; stroke:none;" d="M471 393L472 394L471 393z"/>
<path style="fill:#fcaeb4; stroke:none;" d="M7 394L7 397L8 397L7 394M471.333 394.667L471.667 395.333L471.333 394.667z"/>
<path style="fill:#fc839f; stroke:none;" d="M8.33333 396.667L8.66667 397.333L8.33333 396.667M470.333 396.667L470.667 397.333L470.333 396.667z"/>
<path style="fill:#ff675e; stroke:none;" d="M437 397L438 398L437 397M446 397L447 398L446 397z"/>
<path style="fill:#fcaeb4; stroke:none;" d="M8.33333 398.667L8.66667 399.333L8.33333 398.667M470.333 398.667L470.667 399.333L470.333 398.667z"/>
<path style="fill:#ff675e; stroke:none;" d="M9 399L10 400L9 399M436 399L437 400L436 399M440 399L441 400L440 399M442 399L443 400L442 399z"/>
<path style="fill:#fe4b6b; stroke:none;" d="M452 399L453 400L452 399z"/>
<path style="fill:#fc839f; stroke:none;" d="M9.33333 400.667L9.66667 401.333L9.33333 400.667M469 400L470 401L469 400z"/>
<path style="fill:#ff675e; stroke:none;" d="M447 401L448 402L447 401z"/>
<path style="fill:#fcaeb4; stroke:none;" d="M469.333 401.667L469.667 402.333L469.333 401.667M9 402L10 403L9 402z"/>
<path style="fill:#ff675e; stroke:none;" d="M10 403L11 404L10 403M441 403L444 405L444 404L441 403M448.667 403.333L449.333 403.667L448.667 403.333z"/>
<path style="fill:#fc839f; stroke:none;" d="M468.333 403.667L468.667 404.333L468.333 403.667M10 404L11 405L10 404z"/>
<path style="fill:#fcaeb4; stroke:none;" d="M10.3333 405.667L10.6667 406.333L10.3333 405.667M468 405L469 406L468 405z"/>
<path style="fill:#fc839f; stroke:none;" d="M467.333 406.667L467.667 407.333L467.333 406.667M11.3333 407.667L11.6667 408.333L11.3333 407.667z"/>
<path style="fill:#fe4b6b; stroke:none;" d="M460 408L461 409L460 408z"/>
<path style="fill:#fcaeb4; stroke:none;" d="M467 408L468 409L467 408M11 409L12 410L11 409z"/>
<path style="fill:#fc839f; stroke:none;" d="M466.333 409.667L466.667 410.333L466.333 409.667z"/>
<path style="fill:#ff675e; stroke:none;" d="M12 410L13 411L12 410M445 411L445 412L448 412L445 411M450 410L451 411L450 410z"/>
<path style="fill:#fc839f; stroke:none;" d="M12 411L13 412L12 411z"/>
<path style="fill:#fcaeb4; stroke:none;" d="M466 411L467 412L466 411M12 412L13 413L12 412z"/>
<path style="fill:#ff675e; stroke:none;" d="M13 413L14 414L13 413z"/>
<path style="fill:#fc839f; stroke:none;" d="M465 413L466 414L465 413M13 414L14 415L13 414z"/>
<path style="fill:#ff675e; stroke:none;" d="M460.667 414.333L461.333 414.667L460.667 414.333z"/>
<path style="fill:#fcaeb4; stroke:none;" d="M465 414L466 415L465 414M13 415L14 416L13 415z"/>
<path style="fill:#ff675e; stroke:none;" d="M453 418L455 415L453 418z"/>
<path style="fill:#fcaeb4; stroke:none;" d="M464.333 416.667L464.667 417.333L464.333 416.667z"/>
<path style="fill:#fc839f; stroke:none;" d="M14 417L15 418L14 417z"/>
<path style="fill:#fcaeb4; stroke:none;" d="M14 418L15 419L14 418z"/>
<path style="fill:#fc839f; stroke:none;" d="M463 418L464 419L463 418z"/>
<path style="fill:#ff675e; stroke:none;" d="M15 419L16 420L15 419M453 419L455 421L453 419M462.333 419.667L462.667 420.333L462.333 419.667z"/>
<path style="fill:#fcaeb4; stroke:none;" d="M463 419L464 420L463 419M15 420L16 421L15 420z"/>
<path style="fill:#fc839f; stroke:none;" d="M462 421L463 422L462 421M16 422L17 423L16 422z"/>
<path style="fill:#ff675e; stroke:none;" d="M457 422L458 423L457 422M461 422L462 423L461 422z"/>
<path style="fill:#fcaeb4; stroke:none;" d="M462 422L463 423L462 422M16 423L17 424L16 423z"/>
<path style="fill:#fc839f; stroke:none;" d="M461 423L462 424L461 423z"/>
<path style="fill:#fcaeb4; stroke:none;" d="M461 424L462 425L461 424z"/>
<path style="fill:#fc839f; stroke:none;" d="M17 425L18 426L17 425z"/>
<path style="fill:#ff675e; stroke:none;" d="M460 425L461 426L460 425z"/>
<path style="fill:#fcaeb4; stroke:none;" d="M17 426L18 427L17 426M460 426L461 427L460 426z"/>
<path style="fill:#ff675e; stroke:none;" d="M18 427L19 428L18 427M459 427L460 428L459 427z"/>
<path style="fill:#fcaeb4; stroke:none;" d="M18 428L19 429L18 428z"/>
<path style="fill:#fc839f; stroke:none;" d="M459 428L460 429L459 428z"/>
<path style="fill:#fcaeb4; stroke:none;" d="M459 429L460 430L459 429M19 430L20 431L19 430z"/>
<path style="fill:#fc839f; stroke:none;" d="M458 430L459 431L458 430z"/>
<path style="fill:#ff675e; stroke:none;" d="M457 431L458 432L457 431z"/>
<path style="fill:#fcaeb4; stroke:none;" d="M458 431L459 432L458 431z"/>
<path style="fill:#fc839f; stroke:none;" d="M20 432L21 433L20 432M457 432L458 433L457 432z"/>
<path style="fill:#fcaeb4; stroke:none;" d="M20 433L21 434L20 433M457 433L458 434L457 433z"/>
<path style="fill:#ff675e; stroke:none;" d="M21 434L22 435L21 434z"/>
<path style="fill:#fc839f; stroke:none;" d="M456 434L457 435L456 434z"/>
<path style="fill:#fcaeb4; stroke:none;" d="M21 435L22 436L21 435M456 435L457 436L456 435z"/>
<path style="fill:#ff675e; stroke:none;" d="M22 436L23 437L22 436M455 436L456 437L455 436z"/>
<path style="fill:#fcaeb4; stroke:none;" d="M22 437L23 438L22 437M455 437L456 438L455 437z"/>
<path style="fill:#fc839f; stroke:none;" d="M454 438L455 439L454 438M23 439L24 440L23 439z"/>
<path style="fill:#fcaeb4; stroke:none;" d="M454 439L451 446L452 446L454 439M23 440L24 441L23 440z"/>
<path style="fill:#fc839f; stroke:none;" d="M453 440L454 441L453 440M24 441L25 442L24 441z"/>
<path style="fill:#ff675e; stroke:none;" d="M452 441L453 442L452 441z"/>
<path style="fill:#fcaeb4; stroke:none;" d="M24 442L25 443L24 442z"/>
<path style="fill:#fc839f; stroke:none;" d="M452 442L453 443L452 442M25 443L26 444L25 443z"/>
<path style="fill:#ff675e; stroke:none;" d="M451 443L452 444L451 443z"/>
<path style="fill:#fcaeb4; stroke:none;" d="M25 444L26 445L25 444z"/>
<path style="fill:#fc839f; stroke:none;" d="M451 444L452 445L451 444M26 445L27 446L26 445z"/>
<path style="fill:#ff675e; stroke:none;" d="M450 445L451 446L450 445z"/>
<path style="fill:#fcaeb4; stroke:none;" d="M26 446L27 447L26 446z"/>
<path style="fill:#fc839f; stroke:none;" d="M450 446L451 447L450 446M27 447L28 448L27 447z"/>
<path style="fill:#ff675e; stroke:none;" d="M449 447L450 448L449 447z"/>
<path style="fill:#fcaeb4; stroke:none;" d="M450 447L451 448L450 447M27 448L28 449L27 448z"/>
<path style="fill:#fc839f; stroke:none;" d="M449 448L450 449L449 448M28 449L29 450L28 449z"/>
<path style="fill:#ff675e; stroke:none;" d="M448 449L449 450L448 449z"/>
<path style="fill:#fcaeb4; stroke:none;" d="M449 449L450 450L449 449M28 450L29 451L28 450z"/>
<path style="fill:#fc839f; stroke:none;" d="M448 450L449 451L448 450M29 451L30 452L29 451z"/>
<path style="fill:#ff675e; stroke:none;" d="M447 451L444 457L445 457L447 451z"/>
<path style="fill:#fcaeb4; stroke:none;" d="M448 451L449 452L448 451M29 452L30 453L29 452z"/>
<path style="fill:#ff675e; stroke:none;" d="M30 452L31 453L30 452z"/>
<path style="fill:#fc839f; stroke:none;" d="M447 452L448 453L447 452M30 453L31 454L30 453z"/>
<path style="fill:#ff675e; stroke:none;" d="M31 454L32 455L31 454z"/>
<path style="fill:#fcaeb4; stroke:none;" d="M446 454L447 455L446 454M31 455L32 456L31 455z"/>
<path style="fill:#fc839f; stroke:none;" d="M32 456L33 457L32 456z"/>
<path style="fill:#fcaeb4; stroke:none;" d="M445 456L446 457L445 456M32 457L33 458L32 457z"/>
<path style="fill:#fc839f; stroke:none;" d="M444 457L445 458L444 457M33 458L34 459L33 458z"/>
<path style="fill:#ff675e; stroke:none;" d="M443 458L444 459L443 458z"/>
<path style="fill:#fcaeb4; stroke:none;" d="M443 459L444 460L443 459M34 460L35 461L34 460z"/>
<path style="fill:#fc839f; stroke:none;" d="M442 460L443 461L442 460z"/>
<path style="fill:#ff675e; stroke:none;" d="M35 461L36 462L35 461M441 461L442 462L441 461z"/>
<path style="fill:#fcaeb4; stroke:none;" d="M35 462L36 463L35 462M441 462L442 463L441 462z"/>
<path style="fill:#fc839f; stroke:none;" d="M36 463L37 464L36 463M440 463L441 464L440 463z"/>
<path style="fill:#ff675e; stroke:none;" d="M439 464L440 465L439 464z"/>
<path style="fill:#fcaeb4; stroke:none;" d="M440 464L441 465L440 464M37 465L38 466L37 465M439 465L440 466L439 465z"/>
<path style="fill:#fc839f; stroke:none;" d="M38 466L39 467L38 466M438 466L439 467L438 466z"/>
<path style="fill:#fcaeb4; stroke:none;" d="M38 467L39 468L38 467z"/>
<path style="fill:#ff675e; stroke:none;" d="M437 467L438 468L437 467z"/>
<path style="fill:#fcaeb4; stroke:none;" d="M438 467L439 468L438 467M39 468L40 469L39 468M437 468L438 469L437 468z"/>
<path style="fill:#fc839f; stroke:none;" d="M40 469L41 470L40 469M436 469L437 470L436 469z"/>
<path style="fill:#fcaeb4; stroke:none;" d="M40 470L41 471L40 470z"/>
<path style="fill:#ff675e; stroke:none;" d="M435 470L434 472L435 470z"/>
<path style="fill:#fcaeb4; stroke:none;" d="M436 470L437 471L436 470M41 471L42 472L41 471M435 471L436 472L435 471z"/>
<path style="fill:#fc839f; stroke:none;" d="M42 472L43 473L42 472M434 472L435 473L434 472z"/>
<path style="fill:#fcaeb4; stroke:none;" d="M42 473L43 474L42 473z"/>
<path style="fill:#fc839f; stroke:none;" d="M433 473L434 474L433 473z"/>
<path style="fill:#fcaeb4; stroke:none;" d="M43 474L44 475L43 474z"/>
<path style="fill:#ff675e; stroke:none;" d="M432 474L431 476L432 474z"/>
<path style="fill:#fcaeb4; stroke:none;" d="M433 474L434 475L433 474z"/>
<path style="fill:#fc839f; stroke:none;" d="M44 475L45 476L44 475z"/>
<path style="fill:#fcaeb4; stroke:none;" d="M432 475L433 476L432 475M44 476L46 478L44 476z"/>
<path style="fill:#ff675e; stroke:none;" d="M45 476L46 477L45 476z"/>
<path style="fill:#fc839f; stroke:none;" d="M431 476L432 477L431 476M430 477L431 478L430 477M46 478L47 479L46 478z"/>
<path style="fill:#ff675e; stroke:none;" d="M429 478L428 480L429 478z"/>
<path style="fill:#fcaeb4; stroke:none;" d="M430 478L431 479L430 478z"/>
<path style="fill:#fc839f; stroke:none;" d="M47 479L48 480L47 479z"/>
<path style="fill:#fcaeb4; stroke:none;" d="M429 479L430 480L429 479M47 480L49 482L47 480z"/>
<path style="fill:#ff675e; stroke:none;" d="M48 480L49 481L48 480z"/>
<path style="fill:#fc839f; stroke:none;" d="M428 480L429 481L428 480M427 481L428 482L427 481z"/>
<path style="fill:#fcaeb4; stroke:none;" d="M49 482L50 483L49 482z"/>
<path style="fill:#ff675e; stroke:none;" d="M426 482L425 484L426 482z"/>
<path style="fill:#fcaeb4; stroke:none;" d="M427 482L428 483L427 482z"/>
<path style="fill:#fc839f; stroke:none;" d="M50 483L51 484L50 483z"/>
<path style="fill:#fcaeb4; stroke:none;" d="M426 483L427 484L426 483M50 484L52 486L50 484z"/>
<path style="fill:#ff675e; stroke:none;" d="M51 484L52 485L51 484z"/>
<path style="fill:#fcaeb4; stroke:none;" d="M425 484L426 485L425 484z"/>
<path style="fill:#fc839f; stroke:none;" d="M424 485L425 486L424 485z"/>
<path style="fill:#fcaeb4; stroke:none;" d="M52 486L53 487L52 486z"/>
<path style="fill:#fc839f; stroke:none;" d="M423 486L424 487L423 486M53 487L54 488L53 487M422 487L423 488L422 487M54 488L55 489L54 488z"/>
<path style="fill:#ff675e; stroke:none;" d="M421 488L420 490L421 488z"/>
<path style="fill:#fcaeb4; stroke:none;" d="M422 488L423 489L422 488z"/>
<path style="fill:#ff675e; stroke:none;" d="M55 489L56 490L55 489z"/>
<path style="fill:#fcaeb4; stroke:none;" d="M421 489L422 490L421 489M420 490L421 491L420 490M56 491L57 492L56 491M419 491L420 492L419 491M57 492L58 493L57 492M418 492L419 493L418 492M58 493L59 494L58 493z"/>
<path style="fill:#fc839f; stroke:none;" d="M417 493L418 494L417 493M59 494L60 495L59 494M416 494L417 495L416 494M60 495L61 496L60 495M415 495L404 507L415 495M61 496L65 500L61 496z"/>
<path style="fill:#fcaeb4; stroke:none;" d="M415 496L416 497L415 496M61 497L62 498L61 497M414 497L415 498L414 497M62 498L63 499L62 498M413 498L414 499L413 498M63 499L64 500L63 499M412 499L413 500L412 499M64 500L70 506L64 500z"/>
<path style="fill:#ff675e; stroke:none;" d="M65 500L66 501L65 500z"/>
<path style="fill:#fcaeb4; stroke:none;" d="M411 500L412 501L411 500z"/>
<path style="fill:#ff675e; stroke:none;" d="M66 501L67 502L66 501z"/>
<path style="fill:#fcaeb4; stroke:none;" d="M410 501L411 502L410 501z"/>
<path style="fill:#ff675e; stroke:none;" d="M67 502L68 503L67 502z"/>
<path style="fill:#fcaeb4; stroke:none;" d="M409 502L410 503L409 502z"/>
<path style="fill:#ff675e; stroke:none;" d="M68 503L69 504L68 503z"/>
<path style="fill:#fcaeb4; stroke:none;" d="M408 503L409 504L408 503z"/>
<path style="fill:#ff675e; stroke:none;" d="M69 504L70 505L69 504z"/>
<path style="fill:#fcaeb4; stroke:none;" d="M407 504L408 505L407 504M406 505L407 506L406 505M70 506L72 508L70 506z"/>
<path style="fill:#ff675e; stroke:none;" d="M71 506L72 507L71 506z"/>
<path style="fill:#fcaeb4; stroke:none;" d="M405 506L406 507L405 506z"/>
<path style="fill:#fc839f; stroke:none;" d="M72 507L73 508L72 507M403 507L404 508L403 507z"/>
<path style="fill:#ff675e; stroke:none;" d="M73 508L74 509L73 508z"/>
<path style="fill:#fc839f; stroke:none;" d="M402 508L403 509L402 508z"/>
<path style="fill:#ff675e; stroke:none;" d="M74 509L75 510L74 509z"/>
<path style="fill:#fc839f; stroke:none;" d="M401 509L402 510L401 509M75 510L76 511L75 510z"/>
<path style="fill:#fcaeb4; stroke:none;" d="M400 510L401 511L400 510z"/>
<path style="fill:#fc839f; stroke:none;" d="M76 511L77 512L76 511z"/>
<path style="fill:#ff675e; stroke:none;" d="M398 511L396 514L398 511z"/>
<path style="fill:#fcaeb4; stroke:none;" d="M399 511L400 512L399 511M77 512L78 513L77 512M398 512L399 513L398 512M78 513L79 514L78 513M397 513L398 514L397 513M79 514L80 515L79 514z"/>
<path style="fill:#fc839f; stroke:none;" d="M395 514L396 515L395 514z"/>
<path style="fill:#fcaeb4; stroke:none;" d="M396 514L397 515L396 514M80 515L82 517L80 515z"/>
<path style="fill:#ff675e; stroke:none;" d="M81 515L82 516L81 515z"/>
<path style="fill:#fc839f; stroke:none;" d="M394 515L395 516L394 515M82 516L83 517L82 516M393 516L394 517L393 516M83 517L84 518L83 517z"/>
<path style="fill:#ff675e; stroke:none;" d="M391 517L392 518L391 517z"/>
<path style="fill:#fcaeb4; stroke:none;" d="M392 517L393 518L392 517z"/>
<path style="fill:#fc839f; stroke:none;" d="M84 518L85 519L84 518M390 518L391 519L390 518z"/>
<path style="fill:#fcaeb4; stroke:none;" d="M391 518L392 519L391 518M85 519L87 521L85 519z"/>
<path style="fill:#ff675e; stroke:none;" d="M86 519L87 520L86 519z"/>
<path style="fill:#fc839f; stroke:none;" d="M389 519L390 520L389 519M87 520L88 521L87 520M388 520L389 521L388 520M88 521L89 522L88 521z"/>
<path style="fill:#ff675e; stroke:none;" d="M386 521L387 522L386 521z"/>
<path style="fill:#fcaeb4; stroke:none;" d="M387 521L388 522L387 521M89 522L90 523L89 522z"/>
<path style="fill:#fc839f; stroke:none;" d="M385 522L386 523L385 522z"/>
<path style="fill:#fcaeb4; stroke:none;" d="M386 522L387 523L386 522M90 523L92 525L90 523z"/>
<path style="fill:#ff675e; stroke:none;" d="M91 523L92 524L91 523z"/>
<path style="fill:#fc839f; stroke:none;" d="M384 523L385 524L384 523M92 524L93 525L92 524z"/>
<path style="fill:#ff675e; stroke:none;" d="M382 524L383 525L382 524z"/>
<path style="fill:#fcaeb4; stroke:none;" d="M383 524L384 525L383 524M93 525L94 526L93 525z"/>
<path style="fill:#fc839f; stroke:none;" d="M381 525L382 526L381 525z"/>
<path style="fill:#fcaeb4; stroke:none;" d="M382 525L383 526L382 525M94 526L95 527L94 526z"/>
<path style="fill:#fc839f; stroke:none;" d="M95 526L96 527L95 526z"/>
<path style="fill:#ff675e; stroke:none;" d="M379 526L378 528L379 526z"/>
<path style="fill:#fcaeb4; stroke:none;" d="M380 526L381 527L380 526z"/>
<path style="fill:#fc839f; stroke:none;" d="M96 527L97 528L96 527z"/>
<path style="fill:#fcaeb4; stroke:none;" d="M379 527L380 528L379 527M97 528L98 529L97 528z"/>
<path style="fill:#ff675e; stroke:none;" d="M98 528L99 529L98 528z"/>
<path style="fill:#fc839f; stroke:none;" d="M377 528L378 529L377 528M99 529L100 530L99 529z"/>
<path style="fill:#ff675e; stroke:none;" d="M375 529L376 530L375 529z"/>
<path style="fill:#fcaeb4; stroke:none;" d="M376 529L377 530L376 529M100 530L101 531L100 530z"/>
<path style="fill:#ff675e; stroke:none;" d="M101 530L102 531L101 530z"/>
<path style="fill:#fc839f; stroke:none;" d="M374 530L375 531L374 530M102 531L103 532L102 531z"/>
<path style="fill:#fcaeb4; stroke:none;" d="M373 531L374 532L373 531M103 532L104 533L103 532z"/>
<path style="fill:#fc839f; stroke:none;" d="M371 532L372 533L371 532M105 533L106 534L105 533z"/>
<path style="fill:#ff675e; stroke:none;" d="M369 533L370 534L369 533z"/>
<path style="fill:#fcaeb4; stroke:none;" d="M370 533L371 534L370 533M106 534L107 535L106 534z"/>
<path style="fill:#ff675e; stroke:none;" d="M107 534L108 535L107 534z"/>
<path style="fill:#fc839f; stroke:none;" d="M368 534L369 535L368 534z"/>
<path style="fill:#fcaeb4; stroke:none;" d="M108 535L109 536L108 535z"/>
<path style="fill:#fc839f; stroke:none;" d="M366 535L367 536L366 535z"/>
<path style="fill:#fcaeb4; stroke:none;" d="M367 535L368 536L367 535M109 536L110 537L109 536z"/>
<path style="fill:#fc839f; stroke:none;" d="M110 536L111 537L110 536z"/>
<path style="fill:#ff675e; stroke:none;" d="M364 536L365 537L364 536z"/>
<path style="fill:#fcaeb4; stroke:none;" d="M365 536L366 537L365 536M111 537L112 538L111 537z"/>
<path style="fill:#fc839f; stroke:none;" d="M112 537L113 538L112 537z"/>
<path style="fill:#ff675e; stroke:none;" d="M362 537L363 538L362 537z"/>
<path style="fill:#fc839f; stroke:none;" d="M363 537L364 538L363 537z"/>
<path style="fill:#fcaeb4; stroke:none;" d="M364 537L365 538L364 537M113 538L114 539L113 538z"/>
<path style="fill:#ff675e; stroke:none;" d="M114 538L115 539L114 538M360 538L361 539L360 538z"/>
<path style="fill:#fc839f; stroke:none;" d="M361 538L362 539L361 538z"/>
<path style="fill:#fcaeb4; stroke:none;" d="M362 538L363 539L362 538z"/>
<path style="fill:#fc839f; stroke:none;" d="M115 539L116 540L115 539z"/>
<path style="fill:#ff675e; stroke:none;" d="M116 539L117 540L116 539z"/>
<path style="fill:#fc839f; stroke:none;" d="M359 539L360 540L359 539z"/>
<path style="fill:#fcaeb4; stroke:none;" d="M360 539L361 540L360 539M116 540L117 541L116 540z"/>
<path style="fill:#fc839f; stroke:none;" d="M117 540L118 541L117 540M357 540L358 541L357 540z"/>
<path style="fill:#fcaeb4; stroke:none;" d="M358 540L359 541L358 540M118 541L119 542L118 541z"/>
<path style="fill:#fc839f; stroke:none;" d="M119 541L120 542L119 541z"/>
<path style="fill:#ff675e; stroke:none;" d="M355 541L356 542L355 541z"/>
<path style="fill:#fcaeb4; stroke:none;" d="M356.667 541.333L357.333 541.667L356.667 541.333M120 542L121 543L120 542z"/>
<path style="fill:#fc839f; stroke:none;" d="M121 542L122 543L121 542z"/>
<path style="fill:#ff675e; stroke:none;" d="M353 542L354 543L353 542z"/>
<path style="fill:#fc839f; stroke:none;" d="M354 542L355 543L354 542z"/>
<path style="fill:#fcaeb4; stroke:none;" d="M355 542L356 543L355 542M122 543L123 544L122 543z"/>
<path style="fill:#fc839f; stroke:none;" d="M123 543L124 544L123 543z"/>
<path style="fill:#ff675e; stroke:none;" d="M351 543L352 544L351 543z"/>
<path style="fill:#fcaeb4; stroke:none;" d="M352.667 543.333L353.333 543.667L352.667 543.333M124 544L125 545L124 544z"/>
<path style="fill:#fc839f; stroke:none;" d="M125 544L126 545L125 544z"/>
<path style="fill:#ff675e; stroke:none;" d="M349 544L350 545L349 544z"/>
<path style="fill:#fcaeb4; stroke:none;" d="M350.667 544.333L351.333 544.667L350.667 544.333M126 545L127 546L126 545z"/>
<path style="fill:#fc839f; stroke:none;" d="M127 545L128 546L127 545z"/>
<path style="fill:#ff675e; stroke:none;" d="M347 545L348 546L347 545z"/>
<path style="fill:#fcaeb4; stroke:none;" d="M348.667 545.333L349.333 545.667L348.667 545.333M128 546L129 547L128 546z"/>
<path style="fill:#fc839f; stroke:none;" d="M129 546L130 547L129 546z"/>
<path style="fill:#ff675e; stroke:none;" d="M345 546L346 547L345 546z"/>
<path style="fill:#fcaeb4; stroke:none;" d="M346.667 546.333L347.333 546.667L346.667 546.333M130 547L131 548L130 547z"/>
<path style="fill:#fc839f; stroke:none;" d="M131 547L132 548L131 547z"/>
<path style="fill:#ff675e; stroke:none;" d="M343 547L344 548L343 547z"/>
<path style="fill:#fcaeb4; stroke:none;" d="M344 547L345 548L344 547M132 548L133 549L132 548z"/>
<path style="fill:#fc839f; stroke:none;" d="M133 548L134 549L133 548z"/>
<path style="fill:#ff675e; stroke:none;" d="M341 548L342 549L341 548z"/>
<path style="fill:#fcaeb4; stroke:none;" d="M342 548L343 549L342 548M135 549L136 550L135 549z"/>
<path style="fill:#ff675e; stroke:none;" d="M339 549L340 550L339 549z"/>
<path style="fill:#fcaeb4; stroke:none;" d="M340 549L341 550L340 549M137 550L138 551L137 550z"/>
<path style="fill:#ff675e; stroke:none;" d="M138 550L139 551L138 550z"/>
<path style="fill:#fc839f; stroke:none;" d="M337 550L338 551L337 550z"/>
<path style="fill:#fcaeb4; stroke:none;" d="M338 550L339 551L338 550z"/>
<path style="fill:#fc839f; stroke:none;" d="M140 551L141 552L140 551z"/>
<path style="fill:#fcaeb4; stroke:none;" d="M335 551L336 552L335 551M142 552L143 553L142 552z"/>
<path style="fill:#ff675e; stroke:none;" d="M143 552L144 553L143 552M332 552L333 553L332 552z"/>
<path style="fill:#fcaeb4; stroke:none;" d="M333 552L334 553L333 552M144 553L145 554L144 553z"/>
<path style="fill:#fc839f; stroke:none;" d="M145 553L146 554L145 553M330 553L331 554L330 553z"/>
<path style="fill:#fcaeb4; stroke:none;" d="M331 553L332 554L331 553M147 554L148 555L147 554z"/>
<path style="fill:#fc839f; stroke:none;" d="M148 554L149 555L148 554z"/>
<path style="fill:#ff675e; stroke:none;" d="M326 554L327 555L326 554z"/>
<path style="fill:#fc839f; stroke:none;" d="M327 554L328 555L327 554z"/>
<path style="fill:#fcaeb4; stroke:none;" d="M328 554L329 555L328 554M150 555L151 556L150 555z"/>
<path style="fill:#fc839f; stroke:none;" d="M151 555L152 556L151 555z"/>
<path style="fill:#ff675e; stroke:none;" d="M323.667 555.333L324.333 555.667L323.667 555.333z"/>
<path style="fill:#fc839f; stroke:none;" d="M325 555L326 556L325 555z"/>
<path style="fill:#fcaeb4; stroke:none;" d="M326 555L327 556L326 555M153 556L154 557L153 556z"/>
<path style="fill:#fc839f; stroke:none;" d="M154 556L155 557L154 556z"/>
<path style="fill:#ff675e; stroke:none;" d="M320 556L321 557L320 556z"/>
<path style="fill:#fc839f; stroke:none;" d="M321.667 556.333L322.333 556.667L321.667 556.333z"/>
<path style="fill:#fcaeb4; stroke:none;" d="M323 556L324 557L323 556M155.667 557.333L156.333 557.667L155.667 557.333z"/>
<path style="fill:#fc839f; stroke:none;" d="M157 557L158 558L157 557z"/>
<path style="fill:#ff675e; stroke:none;" d="M158 557L159 558L158 557M317 557L318 558L317 557z"/>
<path style="fill:#fc839f; stroke:none;" d="M318.667 557.333L319.333 557.667L318.667 557.333z"/>
<path style="fill:#fcaeb4; stroke:none;" d="M320 557L321 558L320 557M158.667 558.333L159.333 558.667L158.667 558.333z"/>
<path style="fill:#fc839f; stroke:none;" d="M160 558L161 559L160 558z"/>
<path style="fill:#ff675e; stroke:none;" d="M161 558L162 559L161 558M314 558L315 559L314 558z"/>
<path style="fill:#fc839f; stroke:none;" d="M315 558L316 559L315 558z"/>
<path style="fill:#fcaeb4; stroke:none;" d="M316.667 558.333L317.333 558.667L316.667 558.333M161.667 559.333L162.333 559.667L161.667 559.333z"/>
<path style="fill:#fc839f; stroke:none;" d="M163.667 559.333L164.333 559.667L163.667 559.333z"/>
<path style="fill:#ff675e; stroke:none;" d="M311 559L312 560L311 559z"/>
<path style="fill:#fc839f; stroke:none;" d="M312 559L313 560L312 559z"/>
<path style="fill:#fcaeb4; stroke:none;" d="M313.667 559.333L314.333 559.667L313.667 559.333M165.667 560.333L166.333 560.667L165.667 560.333z"/>
<path style="fill:#fc839f; stroke:none;" d="M167 560L168 561L167 560z"/>
<path style="fill:#ff675e; stroke:none;" d="M168 560L169 561L168 560z"/>
<path style="fill:#fc839f; stroke:none;" d="M308.667 560.333L309.333 560.667L308.667 560.333z"/>
<path style="fill:#fcaeb4; stroke:none;" d="M310.667 560.333L311.333 560.667L310.667 560.333M169 561L170 562L169 561z"/>
<path style="fill:#fc839f; stroke:none;" d="M170.667 561.333L171.333 561.667L170.667 561.333z"/>
<path style="fill:#ff675e; stroke:none;" d="M172 561L173 562L172 561M304 561L305 562L304 561z"/>
<path style="fill:#fc839f; stroke:none;" d="M305 561L306 562L305 561z"/>
<path style="fill:#fcaeb4; stroke:none;" d="M306.667 561.333L307.333 561.667L306.667 561.333M172 562L172 563L175 563L172 562z"/>
<path style="fill:#fc839f; stroke:none;" d="M175 562L176 563L175 562z"/>
<path style="fill:#ff675e; stroke:none;" d="M176 562L177 563L176 562M300 562L301 563L300 562z"/>
<path style="fill:#fc839f; stroke:none;" d="M301 562L302 563L301 562z"/>
<path style="fill:#fcaeb4; stroke:none;" d="M302 562L302 563L305 563L302 562M176 563L176 564L179 564L176 563z"/>
<path style="fill:#fc839f; stroke:none;" d="M179 563L180 564L179 563z"/>
<path style="fill:#ff675e; stroke:none;" d="M180 563L181 564L180 563M296 563L297 564L296 563z"/>
<path style="fill:#fc839f; stroke:none;" d="M297 563L298 564L297 563z"/>
<path style="fill:#fcaeb4; stroke:none;" d="M298 563L298 564L301 564L298 563M181 564L181 565L184 565L181 564z"/>
<path style="fill:#fc839f; stroke:none;" d="M184 564L185 565L184 564z"/>
<path style="fill:#ff675e; stroke:none;" d="M185 564L186 565L185 564z"/>
<path style="fill:#fc839f; stroke:none;" d="M292.667 564.333L293.333 564.667L292.667 564.333z"/>
<path style="fill:#fcaeb4; stroke:none;" d="M294 564L294 565L297 565L294 564M187.667 565.333L188.333 565.667L187.667 565.333z"/>
<path style="fill:#fc839f; stroke:none;" d="M189 565L190 566L189 565z"/>
<path style="fill:#ff675e; stroke:none;" d="M190 565L191 566L190 565z"/>
<path style="fill:#fc839f; stroke:none;" d="M287.667 565.333L288.333 565.667L287.667 565.333z"/>
<path style="fill:#fcaeb4; stroke:none;" d="M289 565L289 566L292 566L289 565M191 566L191 567L194 567L191 566z"/>
<path style="fill:#fc839f; stroke:none;" d="M194.667 566.333L195.333 566.667L194.667 566.333z"/>
<path style="fill:#ff675e; stroke:none;" d="M196 566L197 567L196 566M281 566L282 567L281 566z"/>
<path style="fill:#fc839f; stroke:none;" d="M282 566L283 567L282 566z"/>
<path style="fill:#fcaeb4; stroke:none;" d="M283.667 566.333L284.333 566.667L283.667 566.333M199.667 567.333L200.333 567.667L199.667 567.333z"/>
<path style="fill:#fc839f; stroke:none;" d="M201.667 567.333L202.333 567.667L201.667 567.333z"/>
<path style="fill:#ff675e; stroke:none;" d="M203 567L204 568L203 567M274.667 567.333L275.333 567.667L274.667 567.333z"/>
<path style="fill:#fc839f; stroke:none;" d="M276 567L277 568L276 567z"/>
<path style="fill:#fcaeb4; stroke:none;" d="M277.667 567.333L278.333 567.667L277.667 567.333M207.667 568.333L208.333 568.667L207.667 568.333z"/>
<path style="fill:#fc839f; stroke:none;" d="M209.667 568.333L210.333 568.667L209.667 568.333z"/>
<path style="fill:#ff675e; stroke:none;" d="M211.667 568.333L212.333 568.667L211.667 568.333M266 568L267 569L266 568z"/>
<path style="fill:#fc839f; stroke:none;" d="M267.667 568.333L268.333 568.667L267.667 568.333z"/>
<path style="fill:#fcaeb4; stroke:none;" d="M269 568L269 569L272 569L269 568M216 569L216 570L221 570L216 569z"/>
<path style="fill:#fc839f; stroke:none;" d="M221 569L221 570L224 570L221 569z"/>
<path style="fill:#ff675e; stroke:none;" d="M224 569L224 570L228 570L224 569M252 569L252 570L256 570L252 569z"/>
<path style="fill:#fc839f; stroke:none;" d="M256 569L256 570L260 570L256 569z"/>
<path style="fill:#fcaeb4; stroke:none;" d="M260 569L260 570L263 570L260 569z"/>
</svg>
