<?xml version="1.0" standalone="no"?>
<!DOCTYPE svg PUBLIC "-//W3C//DTD SVG 20010904//EN"
 "http://www.w3.org/TR/2001/REC-SVG-20010904/DTD/svg10.dtd">
<svg version="1.0" xmlns="http://www.w3.org/2000/svg"
 width="50" height="50" viewBox="0 0 640.000000 640.000000"
 preserveAspectRatio="xMidYMid meet">

<g transform="translate(0.000000,640.000000) scale(0.100000,-0.100000)"
fill="#000000" stroke="none">
<path d="M3020 5579 c-632 -72 -1171 -503 -1370 -1097 -54 -162 -71 -262 -77
-449 -7 -206 7 -301 72 -498 125 -380 370 -798 817 -1390 161 -213 218 -287
479 -618 81 -102 169 -215 195 -251 27 -36 57 -66 66 -66 9 0 52 46 100 108
45 59 141 181 213 272 383 484 602 776 770 1030 300 453 464 795 532 1110 29
136 25 408 -9 566 -108 501 -436 915 -898 1132 -128 61 -194 84 -330 116 -182
43 -378 56 -560 35z m364 -1168 c396 -141 512 -625 221 -916 -106 -107 -219
-160 -365 -171 -227 -18 -449 114 -549 326 -41 87 -54 158 -49 265 13 242 187
450 426 510 82 21 240 14 316 -14z"/>
<path d="M2598 1720 c-281 -63 -486 -168 -573 -294 -35 -50 -40 -66 -43 -125
-3 -55 0 -76 18 -110 95 -187 407 -325 865 -382 149 -19 552 -16 705 5 355 48
630 148 760 275 70 68 91 107 97 180 18 197 -231 368 -677 465 -28 6 -32 1
-333 -389 -77 -99 -148 -186 -158 -193 -22 -15 -63 -18 -96 -8 -13 4 -72 72
-135 154 -139 182 -336 430 -346 435 -4 2 -42 -4 -84 -13z"/>
</g>
</svg>
