<?xml version="1.0" standalone="no"?>
<!DOCTYPE svg PUBLIC "-//W3C//DTD SVG 20010904//EN"
 "http://www.w3.org/TR/2001/REC-SVG-20010904/DTD/svg10.dtd">
<svg version="1.0" xmlns="http://www.w3.org/2000/svg"
 width="160.000000pt" height="160.000000pt" viewBox="0 0 160.000000 160.000000"
 preserveAspectRatio="xMidYMid meet">

<g transform="translate(0.000000,160.000000) scale(0.100000,-0.100000)"
fill="#000000" stroke="none">
<path d="M197 968 c-53 -127 -94 -234 -92 -238 8 -13 155 -44 164 -35 9 11
171 402 171 415 0 4 -10 12 -22 18 -13 6 -46 24 -74 41 l-52 30 -95 -231z m57
-193 c9 -24 -4 -45 -29 -45 -13 0 -25 7 -29 15 -9 24 4 45 29 45 13 0 25 -7
29 -15z"/>
<path d="M1235 1158 c-38 -23 -72 -42 -74 -44 -2 -2 36 -100 84 -218 l88 -214
76 20 c42 12 79 24 83 27 6 5 -173 455 -185 467 -1 1 -33 -16 -72 -38z m169
-383 c9 -24 -4 -45 -29 -45 -25 0 -38 21 -29 45 4 8 16 15 29 15 13 0 25 -7
29 -15z"/>
<path d="M539 1123 l-67 -25 -86 -204 c-47 -112 -86 -208 -86 -213 0 -5 14
-18 32 -29 l32 -21 53 50 c39 37 59 49 83 49 33 0 80 -38 80 -65 0 -10 10 -15
33 -15 35 0 77 -33 77 -61 0 -9 11 -14 32 -15 33 -1 78 -41 78 -70 0 -8 10
-14 26 -14 17 0 44 -18 85 -57 59 -56 61 -57 87 -42 48 27 40 45 -59 145 -51
51 -90 97 -86 101 4 4 52 -37 106 -91 l98 -98 31 16 c60 31 54 49 -52 155 -53
53 -93 100 -90 104 4 4 54 -38 110 -94 l102 -100 31 16 c18 9 33 26 38 42 6
25 -6 39 -137 165 -115 109 -155 141 -198 157 -75 29 -111 27 -171 -10 -56
-35 -128 -48 -174 -30 -45 17 -43 36 11 103 69 87 99 112 157 134 l50 18 -40
12 c-59 18 -112 14 -186 -13z"/>
<path d="M795 1111 c-44 -15 -95 -35 -112 -45 -30 -15 -143 -140 -143 -158 0
-4 10 -12 21 -19 31 -16 99 -3 153 31 57 37 111 39 191 9 45 -17 79 -44 189
-150 l135 -130 36 16 c22 9 35 20 32 27 -36 93 -163 386 -171 395 -15 16 -165
53 -213 52 -21 0 -74 -13 -118 -28z"/>
<path d="M428 662 c-58 -55 -66 -93 -28 -124 31 -25 56 -16 113 42 51 53 58
79 27 110 -31 31 -57 24 -112 -28z"/>
<path d="M532 577 c-55 -56 -66 -92 -36 -121 28 -28 56 -18 116 41 62 61 67
75 42 111 -26 38 -63 29 -122 -31z"/>
<path d="M637 492 c-64 -64 -73 -99 -35 -126 34 -24 45 -20 108 40 68 65 78
85 56 119 -28 42 -63 33 -129 -33z"/>
<path d="M743 417 c-29 -30 -53 -61 -53 -70 0 -9 10 -28 23 -42 30 -35 61 -27
115 28 54 57 60 80 28 112 -14 14 -33 25 -42 25 -9 0 -41 -24 -71 -53z"/>
<path d="M900 393 c0 -7 -15 -29 -32 -49 l-33 -37 35 7 c19 3 44 15 55 26 19
20 19 20 -3 42 -12 12 -22 17 -22 11z"/>
</g>
</svg>
