<?xml version="1.0" standalone="no"?>
<!DOCTYPE svg PUBLIC "-//W3C//DTD SVG 20010904//EN"
 "http://www.w3.org/TR/2001/REC-SVG-20010904/DTD/svg10.dtd">
<svg version="1.0" xmlns="http://www.w3.org/2000/svg"
 width="70" height="70" viewBox="0 0 284.000000 177.000000"
 preserveAspectRatio="xMidYMid meet">

<g transform="translate(0.000000,177.000000) scale(0.100000,-0.100000)"
fill="#000000" stroke="none">
<path d="M1360 1754 c-19 -8 -41 -21 -50 -29 -11 -10 -64 -14 -226 -17 -209
-3 -211 -3 -251 -30 -24 -16 -49 -44 -62 -70 -21 -44 -21 -51 -21 -754 0 -667
2 -711 19 -749 10 -22 28 -48 39 -58 50 -45 70 -46 612 -46 542 0 562 1 612
46 11 10 29 36 39 58 17 38 19 82 19 749 0 703 0 710 -21 754 -13 26 -38 54
-62 70 -40 27 -42 27 -251 30 -162 3 -215 7 -226 17 -22 20 -85 45 -112 45
-13 -1 -39 -8 -58 -16z m120 -62 c13 -11 27 -39 34 -72 l12 -55 79 -5 c61 -4
80 -9 89 -23 9 -15 7 -21 -8 -33 -29 -21 -503 -21 -532 0 -15 12 -17 18 -8 33
9 14 28 19 89 23 l79 5 12 55 c14 65 41 90 94 90 21 0 47 -8 60 -18z m-210
-57 c0 -11 -12 -15 -51 -15 -28 0 -65 -6 -82 -14 -19 -9 -72 -16 -128 -18
-155 -5 -139 81 -139 -733 0 -581 2 -694 14 -711 14 -18 31 -19 536 -19 505 0
522 1 536 19 12 17 14 130 14 711 0 814 16 728 -139 733 -56 2 -109 9 -128 18
-17 8 -54 14 -82 14 -39 0 -51 4 -51 15 0 13 27 15 188 15 168 0 190 -2 219
-20 61 -37 58 -1 58 -775 0 -774 3 -738 -58 -775 -31 -19 -55 -20 -557 -20
-502 0 -526 1 -557 20 -61 37 -58 1 -58 775 0 774 -3 738 58 775 29 18 51 20
220 20 160 0 187 -2 187 -15z m-180 -125 c0 -12 11 -32 25 -45 l24 -25 281 0
281 0 24 25 c14 13 25 33 25 45 0 18 6 20 80 20 l80 0 0 -675 0 -675 -490 0
-490 0 0 675 0 675 80 0 c74 0 80 -2 80 -20z"/>
<path d="M1402 1638 c-17 -17 -15 -83 3 -98 12 -10 18 -10 30 0 27 22 15 110
-15 110 -3 0 -11 -5 -18 -12z"/>
<path d="M1201 1166 l-54 -55 -30 25 c-32 27 -50 27 -55 0 -4 -19 63 -96 83
-96 21 0 147 137 143 156 -6 34 -33 25 -87 -30z"/>
<path d="M1370 1145 c-10 -12 -10 -18 0 -30 11 -13 43 -15 209 -13 l196 3 0
25 0 25 -196 3 c-166 2 -198 0 -209 -13z"/>
<path d="M1200 855 l-54 -55 -27 26 c-30 29 -59 27 -59 -4 0 -24 61 -82 86
-82 27 0 144 120 144 148 0 37 -32 26 -90 -33z"/>
<path d="M1364 836 c-13 -33 6 -36 212 -36 l205 0 -3 23 c-3 22 -4 22 -206 25
-171 2 -203 0 -208 -12z"/>
<path d="M1203 557 l-58 -55 -28 23 c-29 26 -57 24 -57 -4 0 -18 69 -91 86
-91 20 0 146 137 142 155 -6 34 -28 27 -85 -28z"/>
<path d="M1376 537 c-11 -8 -15 -19 -10 -30 6 -16 24 -17 208 -15 187 3 201 4
204 22 2 10 -2 22 -10 27 -22 15 -371 11 -392 -4z"/>
</g>
</svg>
