<?xml version="1.0" standalone="no"?>
<!DOCTYPE svg PUBLIC "-//W3C//DTD SVG 20010904//EN"
 "http://www.w3.org/TR/2001/REC-SVG-20010904/DTD/svg10.dtd">
<svg version="1.0" xmlns="http://www.w3.org/2000/svg"
 width="900.000000pt" height="654.000000pt" viewBox="0 0 900.000000 654.000000"
 preserveAspectRatio="xMidYMid meet">

<g transform="translate(0.000000,654.000000) scale(0.100000,-0.100000)"
fill="#000000" stroke="none">
<path d="M3494 6120 c-411 -28 -764 -120 -1099 -284 -290 -143 -519 -311 -761
-557 -470 -481 -737 -1024 -820 -1666 -22 -172 -22 -521 0 -703 24 -200 20
-191 96 -206 115 -24 208 -84 281 -183 l25 -35 48 14 c37 10 46 16 40 29 -18
46 -74 291 -88 391 -23 156 -34 460 -17 460 7 0 47 -32 89 -71 43 -39 111 -95
153 -125 83 -58 148 -123 174 -173 9 -18 29 -84 45 -149 40 -161 63 -218 87
-214 10 2 86 26 170 53 l151 50 -13 26 c-27 51 24 127 117 178 81 44 107 47
211 18 51 -14 117 -26 148 -27 108 -2 182 79 244 267 44 135 65 176 109 215
35 30 117 62 161 62 40 0 125 51 152 91 33 51 41 133 18 218 -9 35 -21 116
-26 179 -12 154 -26 181 -129 256 -44 32 -85 65 -90 72 -9 9 25 31 144 96 86
45 156 85 156 88 0 3 -39 48 -85 100 -47 52 -117 140 -155 196 -117 171 -237
261 -404 304 -40 10 -171 28 -292 41 -120 12 -223 25 -228 30 -11 10 171 145
291 216 52 30 154 84 226 118 308 147 357 134 446 -119 17 -49 47 -111 67
-137 54 -74 195 -161 347 -215 140 -50 184 -80 327 -224 133 -132 214 -193
276 -206 24 -4 37 0 61 20 33 28 49 65 88 201 33 115 100 255 153 322 23 28
74 77 113 109 92 73 104 100 95 216 -7 101 -20 98 122 32 203 -94 443 -254
608 -406 88 -82 217 -216 259 -273 l28 -36 -22 -22 c-11 -13 -21 -26 -21 -29
0 -3 17 -8 38 -12 22 -3 63 -16 93 -30 30 -13 121 -49 203 -81 l149 -57 51 28
c28 15 63 35 78 44 l27 16 -65 108 c-156 261 -265 395 -499 616 -450 424
-1010 684 -1615 749 -143 15 -400 20 -536 11z"/>
<path d="M5645 5922 c-22 -16 -60 -50 -84 -76 l-45 -46 16 -33 c36 -75 255
-285 783 -748 154 -136 291 -258 304 -273 l25 -26 -24 -18 c-92 -65 -558 -379
-571 -384 -19 -7 -249 47 -414 97 -148 46 -206 48 -268 12 -58 -35 -97 -81
-97 -117 0 -24 11 -37 68 -77 339 -239 428 -343 482 -558 21 -85 70 -393 70
-439 0 -33 41 -76 72 -76 36 0 120 44 156 82 29 31 39 61 97 274 98 359 52
300 353 457 340 178 403 209 410 203 3 -3 20 -151 38 -328 59 -572 96 -835
151 -1062 42 -177 59 -202 123 -192 60 9 191 53 228 76 18 11 37 32 43 48 15
39 65 658 109 1347 11 176 25 338 31 360 31 113 79 165 264 289 193 129 281
200 357 289 213 250 205 405 -22 453 -193 41 -383 -10 -762 -205 -94 -49 -169
-81 -187 -81 -20 0 -245 107 -638 303 -773 386 -943 468 -990 474 -31 4 -45
-1 -78 -25z m2402 -661 c70 -32 118 -131 99 -205 -6 -26 -62 -96 -76 -96 -4 0
-10 21 -14 46 -8 64 -62 160 -113 202 -24 20 -43 40 -43 44 0 8 55 26 85 27
11 0 39 -8 62 -18z"/>
<path d="M4831 4569 c-44 -18 -82 -51 -104 -92 -19 -38 -22 -57 -22 -189 l0
-148 -31 -31 c-23 -22 -54 -38 -110 -54 l-77 -22 44 -26 c67 -39 94 -47 162
-47 61 0 65 2 192 83 72 46 146 94 166 107 l36 24 -20 50 c-29 75 -27 168 6
239 26 57 26 57 5 68 -79 42 -193 60 -247 38z"/>
<path d="M3920 4077 c-13 -7 -31 -25 -40 -40 -14 -27 -14 -29 10 -49 46 -38
160 -6 181 50 7 18 3 24 -21 37 -35 18 -96 19 -130 2z"/>
<path d="M5224 3738 c-937 -613 -2190 -1167 -3579 -1583 -538 -161 -531 -159
-693 -160 l-144 0 -24 28 c-34 39 -32 95 6 176 17 35 29 65 27 67 -9 9 -127
-78 -175 -129 -98 -105 -129 -225 -81 -323 26 -55 131 -153 211 -198 101 -56
176 -69 358 -62 478 18 947 143 1645 441 587 251 1184 549 1840 922 361 205
925 545 925 558 0 6 19 20 42 31 53 24 62 53 43 143 -15 71 -20 77 -105 121
-30 15 -71 39 -91 53 l-36 25 -169 -110z"/>
<path d="M6491 3578 c-89 -240 -149 -392 -168 -431 -72 -144 -248 -248 -420
-249 -91 0 -159 22 -217 73 l-45 40 -283 -169 c-279 -166 -633 -370 -858 -494
l-115 -63 -77 -115 c-43 -63 -113 -184 -155 -269 l-78 -154 0 -81 c0 -81 1
-82 92 -286 101 -226 116 -281 111 -415 l-3 -90 -80 -17 c-164 -35 -327 -51
-525 -51 -284 -1 -511 34 -763 117 -131 43 -348 135 -419 179 l-37 22 82 60
c103 76 261 232 311 308 21 32 36 60 34 62 -1 2 -35 -10 -73 -26 -39 -17 -149
-60 -245 -96 -96 -36 -179 -68 -183 -73 -5 -4 -14 -44 -21 -89 -7 -45 -15 -84
-18 -86 -2 -3 -37 23 -77 56 l-73 62 -147 -41 c-80 -23 -189 -51 -241 -63
l-94 -22 59 -54 c231 -209 548 -403 853 -521 890 -347 1866 -238 2660 297 309
208 589 487 786 784 220 331 377 744 447 1177 37 225 38 740 3 740 -8 0 -18
-10 -23 -22z"/>
<path d="M3440 3553 c-59 -10 -92 -26 -100 -49 -11 -28 1 -69 22 -77 38 -14
168 45 168 76 0 11 -54 59 -62 56 -2 -1 -14 -4 -28 -6z"/>
</g>
</svg>
